<?xml version="1.0" encoding="UTF-8"?>
<svg version="1.1" xmlns="http://www.w3.org/2000/svg" width="582" height="183">
<path d="M0 0 C0.66 0 1.32 0 2 0 C2.33 1.65 2.66 3.3 3 5 C3.99 5.33 4.98 5.66 6 6 C6.04898438 6.78246094 6.09796875 7.56492187 6.1484375 8.37109375 C6.22320312 9.38300781 6.29796875 10.39492188 6.375 11.4375 C6.44460937 12.44683594 6.51421875 13.45617187 6.5859375 14.49609375 C6.72257812 15.32238281 6.85921875 16.14867188 7 17 C7.66 17.33 8.32 17.66 9 18 C10.76177793 21.53244592 11.24116621 24.38028875 11.1953125 28.30078125 C11.18886719 29.27724609 11.18242188 30.25371094 11.17578125 31.25976562 C11.15902344 32.26716797 11.14226562 33.27457031 11.125 34.3125 C11.11597656 35.33923828 11.10695313 36.36597656 11.09765625 37.42382812 C11.07416201 39.94945899 11.04131131 42.4746081 11 45 C11.66 45 12.32 45 13 45 C12.814375 44.360625 12.62875 43.72125 12.4375 43.0625 C11.84666484 38.92665389 12.41728241 35.1148827 13 31 C13.99 30.67 14.98 30.34 16 30 C16.433125 29.1028125 16.433125 29.1028125 16.875 28.1875 C18.35785101 25.30417859 20.46095397 23.98169446 23 22 C23.556875 21.2575 24.11375 20.515 24.6875 19.75 C25.120625 19.1725 25.55375 18.595 26 18 C26.66 18 27.32 18 28 18 C28 17.34 28 16.68 28 16 C29.4609375 14.4921875 29.4609375 14.4921875 31.375 12.875 C32.00148437 12.33617187 32.62796875 11.79734375 33.2734375 11.2421875 C35 10 35 10 37 10 C37.43426275 18.26305508 37.18467439 24.93680534 33.93359375 32.59765625 C32.80634618 35.17722228 32.80634618 35.17722228 32.625 38.875 C31.90728291 42.46358545 30.67908765 43.72990907 27.7578125 45.875 C24.90139331 47.70310828 21.96184906 49.34819956 19 51 C18.34 51.66 17.68 52.32 17 53 C20.84883076 51.75479005 23.321149 49.91183092 26.36132812 47.28857422 C32.31533872 42.60662131 39.43295954 40.88034902 46.6875 39.25 C47.61111328 39.02957031 48.53472656 38.80914062 49.48632812 38.58203125 C53.76691642 37.58969905 57.58633027 36.88048658 62 37 C62 38.65 62 40.3 62 42 C61.34 42 60.68 42 60 42 C60 42.66 60 43.32 60 44 C59.34 44 58.68 44 58 44 C57.896875 44.598125 57.79375 45.19625 57.6875 45.8125 C56.90298309 48.30869017 55.90110692 49.25731865 54 51 C53.505 51.99 53.505 51.99 53 53 C52.34 53 51.68 53 51 53 C50.731875 53.556875 50.46375 54.11375 50.1875 54.6875 C48.89100504 57.21225334 47.57523677 59.63714484 46 62 C45.34 62 44.68 62 44 62 C43.505 62.99 43.505 62.99 43 64 C41.34519656 64.67542998 39.68981321 65.34948076 38.03125 66.015625 C35.75886009 67.11686011 33.93022822 68.45180346 31.9375 70 C24.05419888 76.10270994 24.05419888 76.10270994 19.5 75.875 C16.44978647 74.80742527 13.76096708 73.6942298 11 72 C9.75494275 68.83518967 10.04290227 66.08215858 10.4375 62.75 C10.53933594 61.85796875 10.64117187 60.9659375 10.74609375 60.046875 C10.82988281 59.37140625 10.91367188 58.6959375 11 58 C10.01 58.495 10.01 58.495 9 59 C8.67 59.99 8.34 60.98 8 62 C6.25 62.625 6.25 62.625 4 63 C3.2575 63.309375 2.515 63.61875 1.75 63.9375 C-2.15576739 64.02626744 -4.16053619 62.35813542 -7.328125 60.2265625 C-9.93882549 56.74969503 -9.80896482 53.25292071 -10 49 C-10.04898438 48.08621582 -10.09796875 47.17243164 -10.1484375 46.23095703 C-10.69027563 33.64803639 -10.65162744 23.4156452 -5 12 C-4.22616253 9.92540285 -3.47493605 7.84218677 -2.75 5.75 C-1.11607143 1.11607143 -1.11607143 1.11607143 0 0 Z M12 47 C13 49 13 49 13 49 Z M11 54 C11.33 54.99 11.66 55.98 12 57 C12.99 56.67 13.98 56.34 15 56 C13.68 55.34 12.36 54.68 11 54 Z " fill="#1A7BC2" transform="translate(79,22)"/>
<path d="M0 0 C1.97821105 1.44126805 3.65173279 2.75169658 5.1875 4.65625 C5.1875 5.31625 5.1875 5.97625 5.1875 6.65625 C6.115625 6.9965625 6.115625 6.9965625 7.0625 7.34375 C9.95985969 9.13329569 10.22268167 10.38492121 11.1875 13.65625 C11.44984302 16.66596219 11.42048494 19.65663803 11.3828125 22.67578125 C11.3799826 23.53435226 11.37715271 24.39292328 11.37423706 25.2775116 C11.3630807 28.00806875 11.33798459 30.7382927 11.3125 33.46875 C11.30246432 35.32486504 11.2933395 37.18098524 11.28515625 39.03710938 C11.26315626 43.57695046 11.22865781 48.11654381 11.1875 52.65625 C7.92390395 53.55385764 5.49936326 53.63100252 2.125 53.21875 C-0.56901553 52.89870906 -3.09485441 52.65625 -5.8125 52.65625 C-7.47916667 52.65625 -9.14583333 52.65625 -10.8125 52.65625 C-10.8125 52.98625 -10.8125 53.31625 -10.8125 53.65625 C-17.0026736 54.48076083 -22.69427672 55.1080318 -28.8125 53.65625 C-31.5 51.46875 -31.5 51.46875 -33.8125 48.65625 C-34.76125 47.83125 -35.71 47.00625 -36.6875 46.15625 C-39.44859988 42.90486135 -38.94128315 39.88847626 -38.625 35.78125 C-38.38024565 33.73629309 -38.11771929 31.69305992 -37.8125 29.65625 C-37.1525 29.65625 -36.4925 29.65625 -35.8125 29.65625 C-35.8125 28.66625 -35.8125 27.67625 -35.8125 26.65625 C-34.8225 26.65625 -33.8325 26.65625 -32.8125 26.65625 C-32.8125 25.99625 -32.8125 25.33625 -32.8125 24.65625 C-31.35543274 24.15257243 -29.89679904 23.65342444 -28.4375 23.15625 C-27.62539063 22.8778125 -26.81328125 22.599375 -25.9765625 22.3125 C-23.8125 21.65625 -23.8125 21.65625 -21.8125 21.65625 C-21.4825 20.99625 -21.1525 20.33625 -20.8125 19.65625 C-19.81669922 19.67365234 -19.81669922 19.67365234 -18.80078125 19.69140625 C-12.24943213 19.77518409 -12.24943213 19.77518409 -5.8125 18.65625 C-6.38702746 14.72549356 -6.38702746 14.72549356 -8.8125 11.65625 C-11.82329992 11.31074837 -13.90514629 11.08923264 -16.8125 11.65625 C-19.83659364 13.92752334 -19.83659364 13.92752334 -21.8125 16.65625 C-21.8125 16.98625 -21.8125 17.31625 -21.8125 17.65625 C-27.08999285 17.11773032 -31.06895564 15.88281164 -35.8125 13.65625 C-35.20211039 8.16274351 -35.20211039 8.16274351 -33.5625 6.03125 C-32.985 5.5775 -32.4075 5.12375 -31.8125 4.65625 C-31.090625 3.99625 -30.36875 3.33625 -29.625 2.65625 C-21.22367139 -3.31802812 -9.47802496 -4.5283897 0 0 Z M9.1875 19.65625 C10.1875 22.65625 10.1875 22.65625 10.1875 22.65625 Z M-6.8125 28.65625 C-7.1425 28.98625 -7.4725 29.31625 -7.8125 29.65625 C-8.51375 29.615 -9.215 29.57375 -9.9375 29.53125 C-13.75538136 29.69724484 -16.44077648 30.90554741 -19.8125 32.65625 C-20.1425 33.64625 -20.4725 34.63625 -20.8125 35.65625 C-21.4725 35.65625 -22.1325 35.65625 -22.8125 35.65625 C-22.4825 37.30625 -22.1525 38.95625 -21.8125 40.65625 C-18.08266034 41.84979869 -14.70426961 42.06590996 -10.8125 41.65625 C-7.9153059 39.34351558 -7.9153059 39.34351558 -5.8125 36.65625 C-5.4825 36.32625 -5.1525 35.99625 -4.8125 35.65625 C-4.77157063 33.32327567 -4.77008277 30.98919775 -4.8125 28.65625 C-5.4725 28.65625 -6.1325 28.65625 -6.8125 28.65625 Z M9.1875 29.65625 C9.1875 31.30625 9.1875 32.95625 9.1875 34.65625 C9.5175 34.65625 9.8475 34.65625 10.1875 34.65625 C10.1875 33.00625 10.1875 31.35625 10.1875 29.65625 C9.8575 29.65625 9.5275 29.65625 9.1875 29.65625 Z M9.1875 39.65625 C10.1875 42.65625 10.1875 42.65625 10.1875 42.65625 Z M-5.8125 48.65625 C-6.1425 49.31625 -6.4725 49.97625 -6.8125 50.65625 C-6.1525 50.65625 -5.4925 50.65625 -4.8125 50.65625 C-5.1425 49.99625 -5.4725 49.33625 -5.8125 48.65625 Z " fill="#132C4A" transform="translate(529.8125,82.34375)"/>
<path d="M0 0 C0 0.66 0 1.32 0 2 C0.721875 2.12375 1.44375 2.2475 2.1875 2.375 C6.13169432 3.25148763 9.04605528 3.94737134 11.8125 7 C13 9 13 9 13 11 C13.66 11 14.32 11 15 11 C15.28875 11.598125 15.5775 12.19625 15.875 12.8125 C17.04742026 15.19327792 17.04742026 15.19327792 19 18 C19 23 19 28 19 33 C15.43072615 34.18975795 12.20053028 34.12478155 8.48828125 34.09765625 C7.76005661 34.0962413 7.03183197 34.09482635 6.28153992 34.09336853 C3.95848461 34.08777659 1.63552612 34.07522562 -0.6875 34.0625 C-2.26367048 34.05748396 -3.83984248 34.05292123 -5.41601562 34.04882812 C-9.27738098 34.0378098 -13.13867408 34.02055074 -17 34 C-16.3688278 37.67883222 -15.97548833 39.61960933 -13 42 C-9.55390248 43.72304876 -5.77551018 43.37297068 -2 43 C0.75931944 41.74031069 2.42456957 40.71544615 4.31640625 38.36328125 C6 37 6 37 8.41015625 36.96875 C11.04708012 37.49691148 13.49352275 38.01826021 16 39 C17.625 41.625 17.625 41.625 18 44 C17.09515208 45.15518918 16.1755794 46.29885406 15.25 47.4375 C14.73953125 48.07558594 14.2290625 48.71367187 13.703125 49.37109375 C11.80332371 51.18810554 10.56413092 51.60423197 8 52 C8 52.66 8 53.32 8 54 C2.24161338 57.83892442 -6.6061537 57.53743671 -13.375 56.5625 C-14.674375 56.2840625 -14.674375 56.2840625 -16 56 C-16 55.34 -16 54.68 -16 54 C-16.886875 53.938125 -17.77375 53.87625 -18.6875 53.8125 C-24.00584384 52.50800057 -27.06809903 48.47500675 -30 44 C-30 43.34 -30 42.68 -30 42 C-30.99 41.67 -31.98 41.34 -33 41 C-33.53481499 15.12089671 -33.53481499 15.12089671 -25 6 C-17.94793321 1.1431291 -8.40021615 -0.18129963 0 0 Z M-18 19 C-18 20.32 -18 21.64 -18 23 C-10.74 23 -3.48 23 4 23 C3.5785433 17.24832141 3.5785433 17.24832141 0.9375 14.625 C-6.32163022 10.60931094 -12.774323 12.94043837 -18 19 Z " fill="#142E4E" transform="translate(322,80)"/>
<path d="M0 0 C5.28648283 2.27570499 8.45541992 6.07115383 10.61328125 11.3828125 C10.61328125 12.7028125 10.61328125 14.0228125 10.61328125 15.3828125 C11.27328125 15.7128125 11.93328125 16.0428125 12.61328125 16.3828125 C12.54109375 17.56875 12.46890625 18.7546875 12.39453125 19.9765625 C11.84347761 29.45566913 11.5240123 38.86042376 11.67578125 48.35546875 C11.61328125 51.3828125 11.61328125 51.3828125 10.61328125 53.3828125 C6.32328125 53.3828125 2.03328125 53.3828125 -2.38671875 53.3828125 C-3.19757767 49.32851789 -3.49317033 46.22958347 -3.44921875 42.1640625 C-3.44148438 40.98457031 -3.43375 39.80507812 -3.42578125 38.58984375 C-3.39973958 36.11848958 -3.37369792 33.64713542 -3.34765625 31.17578125 C-3.33992188 29.99628906 -3.3321875 28.81679687 -3.32421875 27.6015625 C-3.31261719 26.52841797 -3.30101562 25.45527344 -3.2890625 24.34960938 C-3.381392 21.54463918 -3.61579668 19.08103975 -4.38671875 16.3828125 C-5.04671875 16.0528125 -5.70671875 15.7228125 -6.38671875 15.3828125 C-6.38671875 14.7228125 -6.38671875 14.0628125 -6.38671875 13.3828125 C-12.00097455 12.1698501 -12.00097455 12.1698501 -17.38671875 13.3828125 C-19.03138615 15.84607962 -19.03138615 15.84607962 -20.38671875 18.3828125 C-21.04671875 18.7128125 -21.70671875 19.0428125 -22.38671875 19.3828125 C-22.37624512 20.30094727 -22.36577148 21.21908203 -22.35498047 22.16503906 C-22.3208466 25.57928996 -22.29579465 28.99335888 -22.27685547 32.40771484 C-22.26681284 33.88398097 -22.2531761 35.36022729 -22.23583984 36.83642578 C-22.21151454 38.96131284 -22.20021835 41.08593635 -22.19140625 43.2109375 C-22.18093262 44.4887207 -22.17045898 45.76650391 -22.15966797 47.08300781 C-22.37121597 50.15750549 -22.75544967 51.82019602 -24.38671875 54.3828125 C-26.36628316 54.24248139 -28.34537016 54.0954002 -30.32421875 53.9453125 C-31.42636719 53.86410156 -32.52851563 53.78289062 -33.6640625 53.69921875 C-36.38671875 53.3828125 -36.38671875 53.3828125 -37.38671875 52.3828125 C-37.51442802 50.86506879 -37.57501599 49.34159964 -37.60791016 47.81884766 C-37.63108307 46.84758942 -37.65425598 45.87633118 -37.6781311 44.87564087 C-37.69798065 43.81839813 -37.7178302 42.7611554 -37.73828125 41.671875 C-37.76143402 40.59279877 -37.78458679 39.51372253 -37.80844116 38.40194702 C-37.85616644 36.11371714 -37.90138979 33.82543394 -37.94433594 31.53710938 C-38.01129999 28.02974579 -38.08909074 24.5227385 -38.16796875 21.015625 C-38.2128951 18.79688818 -38.25718692 16.5781384 -38.30078125 14.359375 C-38.32467926 13.30618073 -38.34857727 12.25298645 -38.37319946 11.1678772 C-38.39006805 10.19031464 -38.40693665 9.21275208 -38.42431641 8.20556641 C-38.44128571 7.34476471 -38.458255 6.48396301 -38.47573853 5.59707642 C-38.38671875 3.3828125 -38.38671875 3.3828125 -37.38671875 0.3828125 C-33.09671875 0.3828125 -28.80671875 0.3828125 -24.38671875 0.3828125 C-24.05671875 2.0328125 -23.72671875 3.6828125 -23.38671875 5.3828125 C-22.64421875 4.7640625 -21.90171875 4.1453125 -21.13671875 3.5078125 C-14.71093107 -1.45756889 -7.88914125 -2.04007253 0 0 Z " fill="#142D4E" transform="translate(236.38671875,81.6171875)"/>
<path d="M0 0 C3.47752681 3.47752681 6.03055334 7.15276668 7 12 C7.63654342 13.3479743 8.29605388 14.68596724 9 16 C11.47859908 13.7991151 12.61210366 11.93627031 13.6875 8.8125 C13.93886719 8.09707031 14.19023437 7.38164063 14.44921875 6.64453125 C14.63097656 6.10183594 14.81273437 5.55914062 15 5 C15.66 5 16.32 5 17 5 C17.1959375 4.35675781 17.391875 3.71351562 17.59375 3.05078125 C19 1 19 1 21.96875 0.35546875 C23.1340625 0.30003906 24.299375 0.24460937 25.5 0.1875 C27.24796875 0.08501953 27.24796875 0.08501953 29.03125 -0.01953125 C32 0 32 0 34 1 C32.71141093 6.62293412 30.66700794 11.47500623 27 16 C26.34 16 25.68 16 25 16 C24.87625 16.53625 24.7525 17.0725 24.625 17.625 C24 20 24 20 22.875 22.6875 C21.73166763 27.01582968 22.28171772 30.63206722 23 35 C23.66 35 24.32 35 25 35 C25 36.32 25 37.64 25 39 C25.598125 39.226875 26.19625 39.45375 26.8125 39.6875 C29.64276332 41.38565799 30.56000848 43.05144593 32 46 C32.6875 48.8125 32.6875 48.8125 33 51 C33.66 51 34.32 51 35 51 C34.67 51.99 34.34 52.98 34 54 C31.77110504 54.05428973 29.54182529 54.09292338 27.3125 54.125 C26.07113281 54.14820313 24.82976562 54.17140625 23.55078125 54.1953125 C20.13861966 54.00762484 17.95657769 53.68481449 15 52 C13.8465885 48.92423601 13 46.2987434 13 43 C11.515 42.505 11.515 42.505 10 42 C9.67 42.33 9.34 42.66 9 43 C8.55011719 43.41894531 8.10023438 43.83789062 7.63671875 44.26953125 C5.74619571 46.26834201 4.31475505 48.38404225 2.8125 50.6875 C2.01779297 51.89986328 2.01779297 51.89986328 1.20703125 53.13671875 C0.80871094 53.75160156 0.41039062 54.36648437 0 55 C-2.48020497 54.88658509 -4.95844969 54.75985314 -7.4375 54.625 C-8.14455078 54.5940625 -8.85160156 54.563125 -9.58007812 54.53125 C-11.39239188 54.42719371 -13.19817988 54.22080108 -15 54 C-15.33 53.34 -15.66 52.68 -16 52 C-15.67 51.34 -15.34 50.68 -15 50 C-15.66 49.67 -16.32 49.34 -17 49 C-15.515 48.505 -15.515 48.505 -14 48 C-12.94228261 46.36935236 -11.94726954 44.69719127 -11 43 C-10.46375 42.29875 -9.9275 41.5975 -9.375 40.875 C-7.81086933 38.94262328 -7.81086933 38.94262328 -7 36 C-6.34 35.4225 -5.68 34.845 -5 34.25 C-2.24849244 31.154554 -2 29.11020207 -2 25 C-4.22979668 20.74201624 -4.22979668 20.74201624 -8 18 C-8.35467072 16.67218316 -8.68377958 15.33749525 -9 14 C-9.76512568 12.41376383 -10.58049511 10.85103993 -11.4375 9.3125 C-12.08525391 8.13107422 -12.08525391 8.13107422 -12.74609375 6.92578125 C-13.86078085 4.85897441 -13.86078085 4.85897441 -16 4 C-16 3.01 -16 2.02 -16 1 C-13.37549914 0.77880061 -10.75129514 0.57253331 -8.125 0.375 C-7.37863281 0.31054688 -6.63226563 0.24609375 -5.86328125 0.1796875 C-3.9129953 0.03912635 -1.95530533 0.01240151 0 0 Z " fill="#132C4C" transform="translate(432,81)"/>
<path d="M0 0 C4.84577938 2.61672087 8.83038113 5.41218842 13 9 C13.66 9.33 14.32 9.66 15 10 C16.03462879 10.87986437 17.05333825 11.77853871 18.0625 12.6875 C20.77440021 15.08801292 23.48938288 16.88674493 26.625 18.6875 C32.06603842 22.22510348 34.10902613 26.92988753 36 33 C36.5302851 35.68831489 36.76769893 38.25884734 37 41 C37.37125 42.093125 37.7425 43.18625 38.125 44.3125 C39 47 39 47 38 50 C38.66 50 39.32 50 40 50 C40 51.98 40 53.96 40 56 C36.00089083 55.48216387 34.0533719 54.55282929 31.23046875 51.69140625 C30.56982422 51.02689453 29.90917969 50.36238281 29.22851562 49.67773438 C28.55498047 48.97970703 27.88144531 48.28167969 27.1875 47.5625 C26.49462891 46.86833984 25.80175781 46.17417969 25.08789062 45.45898438 C20 40.28086515 20 40.28086515 20 38 C18.35 37.34 16.7 36.68 15 36 C14.73445313 36.67546875 14.46890625 37.3509375 14.1953125 38.046875 C13.84210938 38.93890625 13.48890625 39.8309375 13.125 40.75 C12.77695313 41.63171875 12.42890625 42.5134375 12.0703125 43.421875 C11 46 11 46 9.92578125 48.046875 C8.90337801 50.20384387 8.4841276 52.15494745 8.0625 54.5 C7.32526006 58.04107375 6.49810268 60.2937221 4 63 C3.34 63.99 2.68 64.98 2 66 C-2.48460036 63.75769982 -3.78937785 56.68760126 -5.37109375 52.13671875 C-9.53098145 39.33290856 -13.3364031 17.6728062 -7 5 C-5 4 -3 3 -1 2 C-0.67 1.34 -0.34 0.68 0 0 Z M12 13 C12 20.26 12 27.52 12 35 C12.66 34.67 13.32 34.34 14 34 C14.05390357 31.06225537 14.0936255 28.12549768 14.125 25.1875 C14.14175781 24.35412109 14.15851563 23.52074219 14.17578125 22.66210938 C14.18222656 21.85966797 14.18867187 21.05722656 14.1953125 20.23046875 C14.20578613 19.49207764 14.21625977 18.75368652 14.22705078 17.99291992 C14.11741479 15.68109324 14.11741479 15.68109324 12 13 Z " fill="#132D50" transform="translate(78,113)"/>
<path d="M0 0 C8.06996269 2.95242537 8.06996269 2.95242537 9.5625 5.9375 C9.8062483 10.8937155 9.90204275 14.45099881 7.5625 18.9375 C5.42578125 20.78125 5.42578125 20.78125 2.875 22.4375 C1.98683594 23.02660156 1.09867188 23.61570312 0.18359375 24.22265625 C-1.11384766 25.07150391 -1.11384766 25.07150391 -2.4375 25.9375 C-3.81796895 26.90894111 -5.19384047 27.88699016 -6.5625 28.875 C-7.51125 29.555625 -8.46 30.23625 -9.4375 30.9375 C-5.54086669 29.11971573 -1.99799971 27.38589977 1.375 24.6875 C3.5625 22.9375 3.5625 22.9375 6.5625 22.9375 C6.62049124 26.70826889 6.65609306 30.47892334 6.6875 34.25 C6.70425781 35.32185547 6.72101563 36.39371094 6.73828125 37.49804688 C6.74794922 39.04008789 6.74794922 39.04008789 6.7578125 40.61328125 C6.77352295 42.0350769 6.77352295 42.0350769 6.78955078 43.4855957 C6.5625 45.9375 6.5625 45.9375 4.5625 48.9375 C3.9025 48.9375 3.2425 48.9375 2.5625 48.9375 C2.315 49.535625 2.0675 50.13375 1.8125 50.75 C0.38177475 53.25376919 -1.0066582 54.41822388 -3.4375 55.9375 C-4.0975 55.9375 -4.7575 55.9375 -5.4375 55.9375 C-5.4375 56.9275 -5.4375 57.9175 -5.4375 58.9375 C-6.0975 58.9375 -6.7575 58.9375 -7.4375 58.9375 C-7.664375 59.700625 -7.89125 60.46375 -8.125 61.25 C-9.72697134 64.53022703 -11.16376 65.42040098 -14.4375 66.9375 C-15.4275 66.9375 -16.4175 66.9375 -17.4375 66.9375 C-17.92882414 60.05896197 -16.70966949 54.27039922 -14.86035156 47.69921875 C-13.75346425 43.67417397 -13.13333223 40.11347005 -13.4375 35.9375 C-13.9325 35.4425 -13.9325 35.4425 -14.4375 34.9375 C-21.44728379 35.64082279 -28.23991607 37.30264034 -34.96484375 39.3515625 C-37.54126764 39.96208949 -39.79971946 40.04131247 -42.4375 39.9375 C-41.89394726 35.71214663 -39.32725918 32.90060853 -36.75 29.6875 C-35.89133725 28.59942354 -35.033272 27.51087532 -34.17578125 26.421875 C-33.50397827 25.58414551 -33.50397827 25.58414551 -32.81860352 24.72949219 C-31.86700767 23.49478943 -30.95775407 22.22667544 -30.08569336 20.93457031 C-26.30254142 15.42348937 -22.16876884 12.4289687 -16.375 9.1875 C-14.79896353 8.27918837 -13.22469388 7.36780311 -11.65234375 6.453125 C-10.91943115 6.02974854 -10.18651855 5.60637207 -9.43139648 5.17016602 C-7.21397996 3.85544491 -7.21397996 3.85544491 -4.53125 1.60546875 C-2.4375 -0.0625 -2.4375 -0.0625 0 0 Z " fill="#64C9F2" transform="translate(60.4375,102.0625)"/>
<path d="M0 0 C0.99 0 1.98 0 3 0 C3 0.66 3 1.32 3 2 C4.11375 2.0928125 4.11375 2.0928125 5.25 2.1875 C8.85122777 3.25149912 9.96756296 4.91370672 12 8 C12 8.66 12 9.32 12 10 C12.66 10.495 13.32 10.99 14 11.5 C14.66 11.995 15.32 12.49 16 13 C16 13.66 16 14.32 16 15 C16.5775 15.28875 17.155 15.5775 17.75 15.875 C19.83333333 16.91666667 21.91666667 17.95833333 24 19 C24.495 30.88 24.495 30.88 25 43 C24.01 43.495 24.01 43.495 23 44 C22.01 43.67 21.02 43.34 20 43 C20 42.34 20 41.68 20 41 C18.68 40.67 17.36 40.34 16 40 C17.63412443 41.70840281 18.86906094 42.93453047 21 44 C21 44.66 21 45.32 21 46 C22.32 46 23.64 46 25 46 C27.44064587 51.64399358 27.19289099 56.97751478 27 63 C21.53185998 65.39830703 17.96642658 66.72108459 12 65 C10 63.1875 10 63.1875 8 61 C4.82641396 58.90382077 1.6180832 57.20602773 -2 56 C-2.433125 55.54625 -2.86625 55.0925 -3.3125 54.625 C-5.58724569 52.43450415 -8.15646023 51.32698522 -11 50 C-11 49.01 -11 48.02 -11 47 C-11.99 46.67 -12.98 46.34 -14 46 C-14.66666667 44.33333333 -15.33333333 42.66666667 -16 41 C-16.84282242 39.9117989 -17.72006184 38.84962014 -18.625 37.8125 C-21 35 -21 35 -21 33 C-21.99 33 -22.98 33 -24 33 C-24.33 31.02 -24.66 29.04 -25 27 C-21.0990668 25.73692251 -18.87299532 26.64185583 -15.05859375 28.03125 C-8.18810003 30.20734507 -1.04397244 31.50306087 6 33 C5.71125 31.74703125 5.4225 30.4940625 5.125 29.203125 C4.74977488 27.55213448 4.37478729 25.90108996 4 24.25 C3.80921875 23.425 3.6184375 22.6 3.421875 21.75 C3.24140625 20.95078125 3.0609375 20.1515625 2.875 19.328125 C2.70742188 18.5949707 2.53984375 17.86181641 2.3671875 17.10644531 C2 15 2 15 2 11 C1.34 11 0.68 11 0 11 C0 7.37 0 3.74 0 0 Z M7 34 C7 34.66 7 35.32 7 36 C7.66 35.67 8.32 35.34 9 35 C8.34 34.67 7.68 34.34 7 34 Z M10 36 C10.33 36.99 10.66 37.98 11 39 C12.65 39.33 14.3 39.66 16 40 C14.71034824 38.62437146 13.37310707 37.29233607 12 36 C11.34 36 10.68 36 10 36 Z " fill="#122949" transform="translate(43,32)"/>
<path d="M0 0 C1.07894531 0.04640625 2.15789062 0.0928125 3.26953125 0.140625 C4.35621094 0.17671875 5.44289063 0.2128125 6.5625 0.25 C7.39394531 0.29640625 8.22539062 0.3428125 9.08203125 0.390625 C11.98491064 5.13273332 10.78510092 9.04729548 10.08203125 14.390625 C13.38203125 14.390625 16.68203125 14.390625 20.08203125 14.390625 C20.08203125 15.050625 20.08203125 15.710625 20.08203125 16.390625 C20.74203125 16.720625 21.40203125 17.050625 22.08203125 17.390625 C21.42203125 20.690625 20.76203125 23.990625 20.08203125 27.390625 C17.11203125 27.390625 14.14203125 27.390625 11.08203125 27.390625 C11.08203125 36.300625 11.08203125 45.210625 11.08203125 54.390625 C12.73203125 54.720625 14.38203125 55.050625 16.08203125 55.390625 C17.74869792 55.72395833 19.41536458 56.05729167 21.08203125 56.390625 C22.20936649 60.33629832 22.40437888 63.42358211 21.08203125 67.390625 C16.25313811 69.3831788 11.06592384 69.94809144 6.08203125 68.390625 C-2.30889111 64.82305597 -2.30889111 64.82305597 -4.04150391 60.74829102 C-5.02441637 56.98283278 -5.05506452 53.90834252 -4.89453125 50.0234375 C-4.86950531 49.34384979 -4.84447937 48.66426208 -4.81869507 47.96408081 C-4.73715438 45.81403706 -4.64031735 43.66500508 -4.54296875 41.515625 C-4.48466141 40.04951921 -4.42735968 38.58337306 -4.37109375 37.1171875 C-4.23167685 33.54112599 -4.07854408 29.96580613 -3.91796875 26.390625 C-6.88796875 26.390625 -9.85796875 26.390625 -12.91796875 26.390625 C-13.24796875 22.430625 -13.57796875 18.470625 -13.91796875 14.390625 C-10.94796875 14.390625 -7.97796875 14.390625 -4.91796875 14.390625 C-5.24796875 13.400625 -5.57796875 12.410625 -5.91796875 11.390625 C-5.25796875 11.390625 -4.59796875 11.390625 -3.91796875 11.390625 C-4.30984375 10.318125 -4.70171875 9.245625 -5.10546875 8.140625 C-5.91796875 4.390625 -5.91796875 4.390625 -4.85546875 2.171875 C-2.91796875 0.390625 -2.91796875 0.390625 0 0 Z " fill="#142D4D" transform="translate(264.91796875,67.609375)"/>
<path d="M0 0 C0.81159394 9.13784278 1.19332684 18.22327983 1.31640625 27.39453125 C1.33718735 28.70789963 1.35796844 30.02126801 1.37937927 31.37443542 C1.43382762 34.81836443 1.4835678 38.26234485 1.53222656 41.70635986 C1.58301632 45.23983175 1.63839819 48.7732316 1.69335938 52.30664062 C1.79999183 59.20436435 1.90163576 66.10215353 2 73 C-2.56271517 75.28135759 -8.96757079 74.04574936 -14 74 C-15.16537408 58.24496872 -14.92976661 42.59659369 -14.5625 26.8125 C-14.50912826 24.29753949 -14.45638966 21.78256545 -14.40429688 19.26757812 C-14.27681444 13.1782106 -14.14157671 7.08905531 -14 1 C-12.04175306 0.83232136 -10.08339945 0.66588795 -8.125 0.5 C-6.48917969 0.36078125 -6.48917969 0.36078125 -4.8203125 0.21875 C-3.21670436 0.09437042 -1.60842449 0 0 0 Z " fill="#122C4F" transform="translate(361,61)"/>
<path d="M0 0 C2.31243792 -0.02685412 4.6249627 -0.04632841 6.9375 -0.0625 C8.22527344 -0.07410156 9.51304687 -0.08570312 10.83984375 -0.09765625 C14 0 14 0 15 1 C15.09425595 3.14743549 15.11742648 5.29801026 15.11352539 7.44750977 C15.11367142 8.12065216 15.11381744 8.79379456 15.1139679 9.48733521 C15.11326878 11.72205784 15.10547652 13.9566981 15.09765625 16.19140625 C15.09579206 17.73697362 15.09436816 19.28254157 15.09336853 20.82810974 C15.0895434 24.90357077 15.07971317 28.97899637 15.06866455 33.05444336 C15.05845032 37.21011882 15.05387089 41.36579999 15.04882812 45.52148438 C15.03809089 53.68100587 15.02101454 61.84049853 15 70 C11.5869409 70.7305343 8.79079696 71.08316366 5.3125 70.6875 C4.54550781 70.60886719 3.77851563 70.53023438 2.98828125 70.44921875 C1 70 1 70 -1 68 C-1.20254517 65.177948 -1.20254517 65.177948 -1.13525391 61.53076172 C-1.12579239 60.86722687 -1.11633087 60.20369202 -1.10658264 59.52005005 C-1.07285702 57.32298504 -1.0247562 55.12647889 -0.9765625 52.9296875 C-0.95040024 51.40798409 -0.92513284 49.88626505 -0.90072632 48.36453247 C-0.83402734 44.35630544 -0.75514532 40.3484064 -0.67376709 36.3404541 C-0.59289357 32.2518372 -0.52348455 28.1630277 -0.453125 24.07421875 C-0.31333507 16.04924535 -0.16068045 8.02458216 0 0 Z " fill="#152D4F" transform="translate(173,65)"/>
<path d="M0 0 C2.31859494 3.65782954 2.21089685 6.70541762 2.13525391 10.97167969 C2.12579239 11.6647673 2.11633087 12.35785492 2.10658264 13.07194519 C2.07299055 15.35552851 2.02485293 17.63855917 1.9765625 19.921875 C1.95038649 21.50798105 1.92512019 23.09410236 1.90072632 24.68023682 C1.83416226 28.84954164 1.75525085 33.01852467 1.67376709 37.18756104 C1.59276203 41.44392572 1.52343486 45.70047884 1.453125 49.95703125 C1.31351252 58.30492381 1.15977647 66.652469 1 75 C-3.95 75.33 -8.9 75.66 -14 76 C-13.67 51.25 -13.34 26.5 -13 1 C-9.37 1 -5.74 1 -2 1 C-1.34 0.67 -0.68 0.34 0 0 Z " fill="#152C4A" transform="translate(385,60)"/>
<path d="M0 0 C2.4375 1.34765625 2.4375 1.34765625 5 3.0625 C8.09234419 5.11708863 11.16412418 7.09311073 14.39453125 8.92578125 C20.63012345 12.4818504 25.06507186 15.41262522 28.6640625 21.68359375 C30.1721258 24.29845204 31.89927893 26.61672451 33.75 29 C34.32234375 29.7425 34.8946875 30.485 35.484375 31.25 C36.89886991 33.10915541 36.89886991 33.10915541 39 34 C39 35.65 39 37.3 39 39 C24.42848928 37.3753603 11.53002123 34.71635485 -0.05859375 25.3671875 C-2.57613937 23.34111493 -5.01264024 21.71504381 -7.8125 20.125 C-11 18 -11 18 -11.66796875 16.17578125 C-12.30145628 12.02457475 -12.82532138 8.16015654 -12 4 C-8.62876587 -0.36835972 -5.26597537 -1.64611673 0 0 Z " fill="#65C9F1" transform="translate(102,103)"/>
<path d="M0 0 C4.29 0 8.58 0 13 0 C14.00435678 3.01307035 14.07198462 4.80166992 14 7.9375 C13.93442827 14.63401257 14.27208112 21.28516503 14.64453125 27.96850586 C14.88320454 32.31960522 15.05680872 36.63993038 15 41 C14.34 41 13.68 41 13 41 C13.66 41.99 14.32 42.98 15 44 C15.1953125 46.26171875 15.1953125 46.26171875 15.125 48.6875 C15.10695313 49.49574219 15.08890625 50.30398437 15.0703125 51.13671875 C15.04710937 51.75160156 15.02390625 52.36648437 15 53 C11.58860997 54.09651823 8.79344419 53.94215473 5.25 53.5625 C3.77273438 53.40974609 3.77273438 53.40974609 2.265625 53.25390625 C1.51796875 53.17011719 0.7703125 53.08632812 0 53 C-0.9971257 50.00862289 -1.09229826 48.18249007 -1.02172852 45.06958008 C-1.00163223 44.06876907 -0.98153595 43.06795807 -0.96083069 42.03681946 C-0.93379562 40.95861435 -0.90676056 39.88040924 -0.87890625 38.76953125 C-0.85529526 37.66397385 -0.83168427 36.55841644 -0.80735779 35.4193573 C-0.73070304 31.88360817 -0.64668612 28.34807705 -0.5625 24.8125 C-0.50928115 22.41732842 -0.45654074 20.02214617 -0.40429688 17.62695312 C-0.27508532 11.75116368 -0.13927018 5.87555929 0 0 Z " fill="#142F51" transform="translate(397,82)"/>
<path d="M0 0 C4.62 0 9.24 0 14 0 C14.98562937 2.95688811 15.09817693 4.74974882 15.03759766 7.82275391 C15.02072906 8.80031647 15.00386047 9.77787903 14.98648071 10.7850647 C14.9625827 11.83825897 14.93868469 12.89145325 14.9140625 13.9765625 C14.89282318 15.05755219 14.87158386 16.13854187 14.84970093 17.25228882 C14.80343744 19.53706167 14.75450905 21.82178188 14.703125 24.10644531 C14.6251615 27.61772659 14.55809009 31.12909895 14.4921875 34.640625 C14.44596538 36.85678455 14.39911205 39.07293104 14.3515625 41.2890625 C14.33171295 42.34630524 14.3118634 43.40354797 14.29141235 44.49282837 C14.26823944 45.46408661 14.24506653 46.43534485 14.22119141 47.43603516 C14.20263092 48.29524567 14.18407043 49.15445618 14.16494751 50.03970337 C14 52 14 52 13 53 C10.81360547 53.07258946 8.62499611 53.08373783 6.4375 53.0625 C4.64119141 53.04896484 4.64119141 53.04896484 2.80859375 53.03515625 C1.88175781 53.02355469 0.95492187 53.01195312 0 53 C-1.25151326 50.49697348 -1.08375047 48.88918798 -1.02172852 46.09130859 C-0.99158409 44.55994766 -0.99158409 44.55994766 -0.96083069 42.99765015 C-0.93379562 41.89240997 -0.90676056 40.7871698 -0.87890625 39.6484375 C-0.85529526 38.5192691 -0.83168427 37.39010071 -0.80735779 36.22671509 C-0.73059782 32.60935272 -0.64662645 28.99219783 -0.5625 25.375 C-0.50929167 22.92709359 -0.4565512 20.47917696 -0.40429688 18.03125 C-0.27496595 12.02070119 -0.13916597 6.01032881 0 0 Z " fill="#162D49" transform="translate(549,82)"/>
<path d="M0 0 C0.66 0 1.32 0 2 0 C2.33 2.64 2.66 5.28 3 8 C3.66 8 4.32 8 5 8 C6.97805062 12.16725266 7.32638237 15.72264103 7.484375 20.3125 C7.5084845 21.00384033 7.53259399 21.69518066 7.55743408 22.4074707 C7.60553191 23.86297436 7.64896551 25.31863883 7.68798828 26.77441406 C7.74982155 28.99359553 7.8329481 31.21128737 7.91796875 33.4296875 C7.96222461 34.84891878 8.00523517 36.26818956 8.046875 37.6875 C8.08651367 38.97011719 8.12615234 40.25273438 8.16699219 41.57421875 C8.00435674 44.91062313 7.5790158 47.07397591 6 50 C3.875 50.8125 3.875 50.8125 2 51 C2 51.66 2 52.32 2 53 C0.35 52.67 -1.3 52.34 -3 52 C-3 51.34 -3 50.68 -3 50 C-4.65 49.34 -6.3 48.68 -8 48 C-8.62529897 42.9752761 -9.13012092 38.07471573 -9 33 C-9.66 33 -10.32 33 -11 33 C-11.41811509 21.50183494 -8.23982351 13.35681494 -2.0859375 3.734375 C-0.95474704 1.98917308 -0.95474704 1.98917308 0 0 Z " fill="#1D83CA" transform="translate(80,31)"/>
<path d="M0 0 C8.07454428 0.8709768 15.92163957 3.69461984 23.625 6.125 C24.81996094 6.49753906 26.01492187 6.87007813 27.24609375 7.25390625 C30.16550644 8.16476301 33.08339186 9.08021058 36 10 C35.67 10.99 35.34 11.98 35 13 C32.67089844 14.07495117 32.67089844 14.07495117 29.609375 15.04296875 C28.50722656 15.39423828 27.40507812 15.74550781 26.26953125 16.10742188 C24.52736328 16.64206055 24.52736328 16.64206055 22.75 17.1875 C21.60402344 17.55552734 20.45804688 17.92355469 19.27734375 18.30273438 C9.92290237 21.23756785 9.92290237 21.23756785 5 21 C4.67 21.66 4.34 22.32 4 23 C-0.69369573 21.18652665 -5.04478684 18.95887967 -9.4375 16.5 C-10.48808594 15.9121875 -11.53867188 15.324375 -12.62109375 14.71875 C-13.40613281 14.1515625 -14.19117187 13.584375 -15 13 C-15 12.01 -15 11.02 -15 10 C-10.58897541 6.48918451 -5.90907373 3.74908129 -1 1 C-0.67 0.67 -0.34 0.34 0 0 Z " fill="#174A8B" transform="translate(117,89)"/>
<path d="M0 0 C1.21623047 0.63808594 1.21623047 0.63808594 2.45703125 1.2890625 C3.62298828 1.95035156 3.62298828 1.95035156 4.8125 2.625 C5.60269531 3.07101563 6.39289062 3.51703125 7.20703125 3.9765625 C7.79871094 4.31429687 8.39039063 4.65203125 9 5 C9 5.66 9 6.32 9 7 C9.99 7.33 10.98 7.66 12 8 C12 8.99 12 9.98 12 11 C9.87308908 12.52048987 7.82149329 13.83347085 5.5625 15.125 C1.55270363 17.26547027 1.55270363 17.26547027 -2 20 C-9.86069225 19.58714852 -17.01101085 17.44658664 -24.5 15.125 C-25.69109375 14.77308594 -26.8821875 14.42117187 -28.109375 14.05859375 C-29.23859375 13.71183594 -30.3678125 13.36507812 -31.53125 13.0078125 C-32.55798828 12.69473145 -33.58472656 12.38165039 -34.64257812 12.05908203 C-35.42052734 11.70958496 -36.19847656 11.36008789 -37 11 C-37.33 10.01 -37.66 9.02 -38 8 C-29.28308665 5.00449713 -20.55268205 2.03066168 -11.6875 -0.5 C-9.92986328 -1.01046875 -9.92986328 -1.01046875 -8.13671875 -1.53125 C-4.56733602 -2.06465713 -3.15133189 -1.66348995 0 0 Z " fill="#1B73B9" transform="translate(45,91)"/>
<path d="M0 0 C2.05961771 1.02980885 3.35668442 2.15105618 5.0625 3.6875 C7.77440021 6.08801292 10.48938288 7.88674493 13.625 9.6875 C19.06603842 13.22510348 21.10902613 17.92988753 23 24 C23.5302851 26.68831489 23.76769893 29.25884734 24 32 C24.37125 33.093125 24.7425 34.18625 25.125 35.3125 C26 38 26 38 25 41 C25.66 41 26.32 41 27 41 C27 42.98 27 44.96 27 47 C23.00089083 46.48216387 21.0533719 45.55282929 18.23046875 42.69140625 C17.56982422 42.02689453 16.90917969 41.36238281 16.22851562 40.67773438 C15.55498047 39.97970703 14.88144531 39.28167969 14.1875 38.5625 C13.49462891 37.86833984 12.80175781 37.17417969 12.08789062 36.45898438 C7 31.28086515 7 31.28086515 7 29 C4.525 28.01 4.525 28.01 2 27 C1.34 27.99 0.68 28.98 0 30 C-0.5625 28.0625 -0.5625 28.0625 -1 26 C-0.67 25.67 -0.34 25.34 0 25 C0.08737645 23.14630389 0.10698153 21.28932459 0.09765625 19.43359375 C0.09443359 18.30888672 0.09121094 17.18417969 0.08789062 16.02539062 C0.07951172 14.84138672 0.07113281 13.65738281 0.0625 12.4375 C0.05798828 11.24962891 0.05347656 10.06175781 0.04882812 8.83789062 C0.03699675 5.89187774 0.02051287 2.94596319 0 0 Z " fill="#1973B4" transform="translate(91,122)"/>
<path d="M0 0 C0.05799124 3.77076889 0.09359306 7.54142334 0.125 11.3125 C0.14175781 12.38435547 0.15851563 13.45621094 0.17578125 14.56054688 C0.18222656 15.58857422 0.18867187 16.61660156 0.1953125 17.67578125 C0.20578613 18.62364502 0.21625977 19.57150879 0.22705078 20.5480957 C0 23 0 23 -2 26 C-2.66 26 -3.32 26 -4 26 C-4.2475 26.598125 -4.495 27.19625 -4.75 27.8125 C-6.18072525 30.31626919 -7.5691582 31.48072388 -10 33 C-10.66 33 -11.32 33 -12 33 C-12 33.99 -12 34.98 -12 36 C-12.66 36 -13.32 36 -14 36 C-14.226875 36.763125 -14.45375 37.52625 -14.6875 38.3125 C-16.28947134 41.59272703 -17.72626 42.48290098 -21 44 C-21.99 44 -22.98 44 -24 44 C-24.49132414 37.12146197 -23.27216949 31.33289922 -21.42285156 24.76171875 C-20.57337532 21.67271423 -20 18.97627667 -20 15.76171875 C-20 12.76581428 -19.75861127 11.4081884 -18 9 C-15.79296875 7.65625 -15.79296875 7.65625 -13.1875 6.5 C-8.71115662 4.41662981 -4.81264401 0 0 0 Z " fill="#122B4D" transform="translate(67,125)"/>
<path d="M0 0 C0.43426275 8.26305508 0.18467439 14.93680534 -3.06640625 22.59765625 C-4.19365382 25.17722228 -4.19365382 25.17722228 -4.375 28.875 C-5.09336357 32.46681785 -6.32482827 33.73424909 -9.25 35.87890625 C-12.10473602 37.70772151 -15.03591086 39.35328381 -18 41 C-19.35387289 41.97201131 -20.69855198 42.95884159 -22 44 C-22.495 42.515 -22.495 42.515 -23 41 C-23.66 41 -24.32 41 -25 41 C-25.11381955 34.23405981 -24.88021369 27.71162938 -24 21 C-23.01 20.67 -22.02 20.34 -21 20 C-20.71125 19.401875 -20.4225 18.80375 -20.125 18.1875 C-18.64214899 15.30417859 -16.53904603 13.98169446 -14 12 C-13.443125 11.2575 -12.88625 10.515 -12.3125 9.75 C-11.879375 9.1725 -11.44625 8.595 -11 8 C-10.34 8 -9.68 8 -9 8 C-9 7.34 -9 6.68 -9 6 C-7.5390625 4.4921875 -7.5390625 4.4921875 -5.625 2.875 C-4.68527344 2.06675781 -4.68527344 2.06675781 -3.7265625 1.2421875 C-2 0 -2 0 0 0 Z " fill="#112D4E" transform="translate(116,32)"/>
<path d="M0 0 C0.99 0 1.98 0 3 0 C3 0.66 3 1.32 3 2 C4.11375 2.0928125 4.11375 2.0928125 5.25 2.1875 C8.85122777 3.25149912 9.96756296 4.91370672 12 8 C12 8.66 12 9.32 12 10 C12.66 10.495 13.32 10.99 14 11.5 C14.66 11.995 15.32 12.49 16 13 C16 13.66 16 14.32 16 15 C16.5775 15.28875 17.155 15.5775 17.75 15.875 C19.83333333 16.91666667 21.91666667 17.95833333 24 19 C24.33 26.92 24.66 34.84 25 43 C24.01 43.495 24.01 43.495 23 44 C21.515 43.505 21.515 43.505 20 43 C20 42.34 20 41.68 20 41 C19.278125 40.71125 18.55625 40.4225 17.8125 40.125 C16.884375 39.75375 15.95625 39.3825 15 39 C13.6696875 38.4740625 13.6696875 38.4740625 12.3125 37.9375 C8.12921348 36.24157303 8.12921348 36.24157303 6.5625 33.3125 C3.7365128 26.39171503 2 18.45836081 2 11 C1.34 11 0.68 11 0 11 C0 7.37 0 3.74 0 0 Z " fill="#17427B" transform="translate(43,32)"/>
<path d="M0 0 C0.66 0 1.32 0 2 0 C2.33 1.65 2.66 3.3 3 5 C3.99 5.33 4.98 5.66 6 6 C6.04898438 6.78246094 6.09796875 7.56492187 6.1484375 8.37109375 C6.22320312 9.38300781 6.29796875 10.39492188 6.375 11.4375 C6.44460937 12.44683594 6.51421875 13.45617187 6.5859375 14.49609375 C6.72257812 15.32238281 6.85921875 16.14867188 7 17 C7.66 17.33 8.32 17.66 9 18 C10.70798033 21.46707512 11.26990923 24.390339 11.37890625 28.23046875 C11.43014648 29.68163086 11.43014648 29.68163086 11.48242188 31.16210938 C11.50884766 32.16048828 11.53527344 33.15886719 11.5625 34.1875 C11.62229569 36.18111378 11.68590565 38.17461797 11.75390625 40.16796875 C11.77783447 41.04735107 11.8017627 41.9267334 11.82641602 42.83276367 C11.86770065 45.04738119 11.86770065 45.04738119 13 47 C12.5625 49.125 12.5625 49.125 12 51 C12.66 51 13.32 51 14 51 C14.33 51.66 14.66 52.32 15 53 C16.98 53 18.96 53 21 53 C21 53.66 21 54.32 21 55 C20.38125 55.0825 19.7625 55.165 19.125 55.25 C16.81562433 55.81258459 16.81562433 55.81258459 15.75 58.0625 C15.5025 58.701875 15.255 59.34125 15 60 C14.38125 59.649375 13.7625 59.29875 13.125 58.9375 C12.42375 58.628125 11.7225 58.31875 11 58 C10.01 58.495 10.01 58.495 9 59 C8.67 59.99 8.34 60.98 8 62 C6.25 62.625 6.25 62.625 4 63 C3.2575 63.309375 2.515 63.61875 1.75 63.9375 C-2.22353686 64.02780766 -4.29592098 62.39794748 -7.328125 59.94140625 C-10.20998526 56.59494702 -10.1105592 53.26021435 -10 49 C-10.01740234 47.94425781 -10.01740234 47.94425781 -10.03515625 46.8671875 C-10.05814396 45.2449122 -10.03451215 43.62207105 -10 42 C-9.34 42 -8.68 42 -8 42 C-7.83013455 43.56215548 -7.66426036 45.1247452 -7.5 46.6875 C-7.4071875 47.55761719 -7.314375 48.42773438 -7.21875 49.32421875 C-7.00840136 51.89723339 -6.96280856 54.41984364 -7 57 C-5.7934375 57.433125 -5.7934375 57.433125 -4.5625 57.875 C-2 59 -2 59 -1 61 C1.02463255 61.65213292 1.02463255 61.65213292 3 62 C3 61.34 3 60.68 3 60 C4.98 59.505 4.98 59.505 7 59 C7.96448331 50.80292671 8.0602925 42.80405683 7.75 34.5625 C7.72292969 33.40556641 7.69585937 32.24863281 7.66796875 31.05664062 C7.62800781 29.94611328 7.58804688 28.83558594 7.546875 27.69140625 C7.51432617 26.69310791 7.48177734 25.69480957 7.44824219 24.66625977 C6.87196534 21.23841695 5.41189899 19.41189899 3 17 C2.85884839 14.32941149 2.95752893 11.67567762 3 9 C2.34 9 1.68 9 1 9 C0.731875 9.721875 0.46375 10.44375 0.1875 11.1875 C-0.99475134 13.98756896 -2.41950712 16.40799167 -4 19 C-6.76665155 23.86930673 -7.97111809 28.55297814 -9 34 C-9.33 34 -9.66 34 -10 34 C-10.70841866 25.6406598 -8.17983101 19.64243476 -5 12 C-3.9096707 9.02311409 -2.85108471 6.03668286 -1.796875 3.046875 C-1 1 -1 1 0 0 Z M11 54 C11.33 54.99 11.66 55.98 12 57 C12.99 56.67 13.98 56.34 15 56 C13.68 55.34 12.36 54.68 11 54 Z " fill="#277AB1" transform="translate(79,22)"/>
<path d="M0 0 C4.29 0 8.58 0 13 0 C14.00435678 3.01307035 14.07198462 4.80166992 14 7.9375 C13.93442827 14.63401257 14.27208112 21.28516503 14.64453125 27.96850586 C14.88320454 32.31960522 15.05680872 36.63993038 15 41 C14.34 41 13.68 41 13 41 C13.66 41.99 14.32 42.98 15 44 C15.1953125 46.26171875 15.1953125 46.26171875 15.125 48.6875 C15.10695313 49.49574219 15.08890625 50.30398437 15.0703125 51.13671875 C15.04710937 51.75160156 15.02390625 52.36648437 15 53 C11.58860997 54.09651823 8.79344419 53.94215473 5.25 53.5625 C3.77273438 53.40974609 3.77273438 53.40974609 2.265625 53.25390625 C1.51796875 53.17011719 0.7703125 53.08632812 0 53 C-0.9971257 50.00862289 -1.09229826 48.18249007 -1.02172852 45.06958008 C-1.00163223 44.06876907 -0.98153595 43.06795807 -0.96083069 42.03681946 C-0.93379562 40.95861435 -0.90676056 39.88040924 -0.87890625 38.76953125 C-0.85529526 37.66397385 -0.83168427 36.55841644 -0.80735779 35.4193573 C-0.73070304 31.88360817 -0.64668612 28.34807705 -0.5625 24.8125 C-0.50928115 22.41732842 -0.45654074 20.02214617 -0.40429688 17.62695312 C-0.27508532 11.75116368 -0.13927018 5.87555929 0 0 Z M2 2 C1.95191361 3.77018033 1.9632591 5.54204785 2 7.3125 C2.04323488 11.41500955 1.90129095 15.36318461 1.4375 19.4375 C0.55464493 28.5971214 1.4424181 37.83850045 2 47 C4.64 47.99 7.28 48.98 10 50 C11.31539196 44.55051904 12.37169109 39.10040876 13.25 33.5625 C13.44078125 32.36753906 13.6315625 31.17257813 13.828125 29.94140625 C13.88484375 28.97074219 13.9415625 28.00007813 14 27 C13.34 26.34 12.68 25.68 12 25 C11.90695368 22.64767284 11.92462991 20.29045985 12 17.9375 C12.1258322 11.97119468 11.61478856 6.75268423 10 1 C5.67679914 0.49633499 5.67679914 0.49633499 2 2 Z " fill="#162B45" transform="translate(397,82)"/>
<path d="M0 0 C0.99 0 1.98 0 3 0 C3 0.66 3 1.32 3 2 C4.11375 2.0928125 4.11375 2.0928125 5.25 2.1875 C8.8185739 3.24185138 9.92245228 4.99909773 12 8 C11.030625 8.433125 10.06125 8.86625 9.0625 9.3125 C5.72268235 10.7014861 5.72268235 10.7014861 5 14 C5.309375 14.7425 5.61875 15.485 5.9375 16.25 C7.23961555 19.62018141 7.14047634 22.41785339 7 26 C7.66 26 8.32 26 9 26 C9.09539063 26.59554687 9.19078125 27.19109375 9.2890625 27.8046875 C10.15366589 30.47450677 11.20803685 31.37862885 13.375 33.125 C13.98085938 33.62257812 14.58671875 34.12015625 15.2109375 34.6328125 C17.83468337 36.98069357 17.83468337 36.98069357 21 38 C21.10854617 35.60293877 21.18753157 33.21084162 21.25 30.8125 C21.28351563 30.13896484 21.31703125 29.46542969 21.3515625 28.77148438 C21.42503051 25.00624873 21.11393243 23.16891146 18.984375 20.01171875 C18.32953125 19.34785156 17.6746875 18.68398438 17 18 C17.66 17.34 18.32 16.68 19 16 C19.99 16.66 20.98 17.32 22 18 C22.66 18.33 23.32 18.66 24 19 C24.33 26.92 24.66 34.84 25 43 C24.01 43.495 24.01 43.495 23 44 C21.515 43.505 21.515 43.505 20 43 C20 42.34 20 41.68 20 41 C19.278125 40.71125 18.55625 40.4225 17.8125 40.125 C16.884375 39.75375 15.95625 39.3825 15 39 C13.6696875 38.4740625 13.6696875 38.4740625 12.3125 37.9375 C8.12921348 36.24157303 8.12921348 36.24157303 6.5625 33.3125 C3.7365128 26.39171503 2 18.45836081 2 11 C1.34 11 0.68 11 0 11 C0 7.37 0 3.74 0 0 Z " fill="#103961" transform="translate(43,32)"/>
<path d="M0 0 C2.86298537 3.97123777 3.34454953 7.17630663 3 12 C2.360625 12.28875 1.72125 12.5775 1.0625 12.875 C-1.15206079 13.82823451 -1.15206079 13.82823451 -2 16 C-5.59421053 17.08662179 -7.68234131 17.0899034 -11.3125 16.0625 C-14.25144123 13.80703347 -14.44185532 13.45044948 -14.9375 10 C-15.14646416 7.17094674 -14.92464493 5.77393478 -14 3 C-9.13038279 -0.50612439 -6.004423 -2.07845412 0 0 Z " fill="#163051" transform="translate(484,120)"/>
<path d="M0 0 C2.93297816 3.31554053 2.13944086 7.81677423 2 12 C-2.62197306 14.21854707 -5.76824163 15.38281159 -11 15 C-15 8.81818182 -15 8.81818182 -15 5.3125 C-13.77798965 2.48660108 -12.36980046 0.95160038 -10 -1 C-5.98367013 -2.33877662 -3.90367509 -1.49049413 0 0 Z " fill="#172D4A" transform="translate(410,62)"/>
<path d="M0 0 C0.6875 2.0625 0.6875 2.0625 1 4 C1.66 4 2.32 4 3 4 C3.47668394 11.15025907 3.47668394 11.15025907 1.5625 14.5625 C-1.82491869 16.46275927 -4.10361382 16.11709307 -7.87890625 15.65234375 C-10.39614179 14.87816634 -11.43652758 14.11068776 -13 12 C-13.76190476 5.14285714 -13.76190476 5.14285714 -11.375 1.5625 C-7.49950067 -0.98717061 -4.38805494 -1.46268498 0 0 Z " fill="#172D4C" transform="translate(561,61)"/>
<path d="M0 0 C0.99 0 1.98 0 3 0 C3.33 1.32 3.66 2.64 4 4 C4.66 4 5.32 4 6 4 C6.33692785 5.60341555 6.66941093 7.20776555 7 8.8125 C7.185625 9.70582031 7.37125 10.59914062 7.5625 11.51953125 C8.00940254 14.05330902 8 16.43506735 8 19 C8.66 19 9.32 19 10 19 C9.67 19.99 9.34 20.98 9 22 C7.68 22 6.36 22 5 22 C4.71125 21.38125 4.4225 20.7625 4.125 20.125 C3.06279958 17.86674235 3.06279958 17.86674235 1 16 C-2.30984936 12.69015064 -2.76729545 9.49895466 -3 5 C-1.75 2.0625 -1.75 2.0625 0 0 Z " fill="#1A6BB5" transform="translate(108,144)"/>
<path d="M0 0 C8.09194999 1.38527523 15.80395322 3.65749026 23.625 6.125 C24.81996094 6.49753906 26.01492187 6.87007813 27.24609375 7.25390625 C30.16550644 8.16476301 33.08339186 9.08021058 36 10 C35.67 10.99 35.34 11.98 35 13 C32.37998134 14.05096794 29.8866519 14.90585584 27.1875 15.6875 C26.46240234 15.91244141 25.73730469 16.13738281 24.99023438 16.36914062 C21.4922853 17.4220457 18.68003146 18 15 18 C15.33 17.01 15.66 16.02 16 15 C18.50390625 13.83203125 18.50390625 13.83203125 21.5625 12.8125 C22.57441406 12.46832031 23.58632812 12.12414062 24.62890625 11.76953125 C25.41136719 11.51558594 26.19382813 11.26164062 27 11 C26.67 10.34 26.34 9.68 26 9 C24.96875 8.855625 23.9375 8.71125 22.875 8.5625 C19.45254071 8.06569139 17.06530331 7.19529202 13.9609375 5.76953125 C8.85252872 3.76483697 3.32467595 2.28631119 -2 4 C-1.34 2.68 -0.68 1.36 0 0 Z " fill="#1F4471" transform="translate(117,89)"/>
<path d="M0 0 C0.33 0 0.66 0 1 0 C1.09796875 0.84304687 1.1959375 1.68609375 1.296875 2.5546875 C1.44640625 3.65039062 1.5959375 4.74609375 1.75 5.875 C1.88921875 6.96554688 2.0284375 8.05609375 2.171875 9.1796875 C2.70935435 12.12778129 2.70935435 12.12778129 5.078125 13.3828125 C5.71234375 13.58648437 6.3465625 13.79015625 7 14 C7 18 7 18 6.3125 20.0625 C6.1578125 21.0215625 6.1578125 21.0215625 6 22 C7.35444301 23.77190909 7.35444301 23.77190909 9 25 C9.12375 24.4225 9.2475 23.845 9.375 23.25 C10.00648824 20.97664233 10.88858191 19.0746471 12 17 C11.34 17 10.68 17 10 17 C10.33 16.01 10.66 15.02 11 14 C11.99 14 12.98 14 14 14 C15.78739314 21.42455611 13.82260707 25.54521713 10 32 C7 31 7 31 5.125 27.5625 C1.9475863 20.00074801 0.0835158 11.91565223 -2 4 C-1.34 3.67 -0.68 3.34 0 3 C0 2.01 0 1.02 0 0 Z " fill="#142842" transform="translate(71,147)"/>
<path d="M0 0 C0.66 0 1.32 0 2 0 C2.33 1.65 2.66 3.3 3 5 C3.99 5.33 4.98 5.66 6 6 C6 6.99 6 7.98 6 9 C5.01 9.33 4.02 9.66 3 10 C2.34 9.67 1.68 9.34 1 9 C0.731875 9.721875 0.46375 10.44375 0.1875 11.1875 C-0.99475134 13.98756896 -2.41950712 16.40799167 -4 19 C-6.76665155 23.86930673 -7.97111809 28.55297814 -9 34 C-9.33 34 -9.66 34 -10 34 C-10.70841866 25.6406598 -8.17983101 19.64243476 -5 12 C-3.9096707 9.02311409 -2.85108471 6.03668286 -1.796875 3.046875 C-1 1 -1 1 0 0 Z " fill="#1C6ACA" transform="translate(79,22)"/>
<path d="M0 0 C1.98 0.66 3.96 1.32 6 2 C6 2.66 6 3.32 6 4 C6.99 4.33 7.98 4.66 9 5 C9 5.99 9 6.98 9 8 C6.87308908 9.52048987 4.82149329 10.83347085 2.5625 12.125 C-1.44729637 14.26547027 -1.44729637 14.26547027 -5 17 C-12.74294749 16.61285263 -19.67215315 14.43506503 -27 12 C-27 11.67 -27 11.34 -27 11 C-21.18367685 10.6991557 -18.21245272 11.22002521 -13 14 C-10.24853726 14.25284367 -10.24853726 14.25284367 -8 14 C-8 13.34 -8 12.68 -8 12 C-5.36 12 -2.72 12 0 12 C0 11.01 0 10.02 0 9 C0.99 9 1.98 9 3 9 C2.65555119 6.52733235 2.65555119 6.52733235 2 4 C1.34 3.67 0.68 3.34 0 3 C0 2.01 0 1.02 0 0 Z " fill="#3071AA" transform="translate(48,94)"/>
<path d="M0 0 C0.99 0.33 1.98 0.66 3 1 C0.78287584 4.60580677 -1.00011069 6.2849399 -5.046875 7.29296875 C-6.61062251 7.61126533 -8.17868983 7.90892622 -9.75 8.1875 C-11.30748434 8.49250735 -12.86477788 8.79849071 -14.421875 9.10546875 C-15.18306641 9.24919922 -15.94425781 9.39292969 -16.72851562 9.54101562 C-18.9715883 9.99425903 -21.17555353 10.53194155 -23.390625 11.10546875 C-26.46523028 11.86746508 -28.86526012 12.19592124 -32 12 C-31.45773019 8.20411134 -29.79872437 6.52788007 -27 4 C-27 5.32 -27 6.64 -27 8 C-24.69 7.01 -22.38 6.02 -20 5 C-20 5.66 -20 6.32 -20 7 C-17.60135582 6.40561899 -15.20654085 5.79992905 -12.8125 5.1875 C-11.80219727 4.9390332 -11.80219727 4.9390332 -10.77148438 4.68554688 C-7.61027135 3.86825765 -5.00040109 3.00024334 -2.19921875 1.30078125 C-1.47347656 0.87152344 -0.74773438 0.44226563 0 0 Z " fill="#65C6E6" transform="translate(50,130)"/>
<path d="M0 0 C0.33 0 0.66 0 1 0 C1.79179657 11.86280939 2.09940902 23.65410479 1.96289062 35.54467773 C1.92201744 40.48443833 1.93055197 45.14570856 3 50 C4.65 50 6.3 50 8 50 C8.33 50.99 8.66 51.98 9 53 C2.84765625 53.09765625 2.84765625 53.09765625 1 53 C-0.60459086 51.39540914 -0.17318265 49.65847834 -0.22119141 47.43603516 C-0.24436432 46.46477692 -0.26753723 45.49351868 -0.29141235 44.49282837 C-0.3112619 43.43558563 -0.33111145 42.3783429 -0.3515625 41.2890625 C-0.37471527 40.20998627 -0.39786804 39.13091003 -0.42172241 38.01913452 C-0.46944769 35.73090464 -0.51467104 33.44262144 -0.55761719 31.15429688 C-0.62458124 27.64693329 -0.70237199 24.139926 -0.78125 20.6328125 C-0.82617635 18.41407568 -0.87046817 16.1953259 -0.9140625 13.9765625 C-0.93796051 12.92336823 -0.96185852 11.87017395 -0.98648071 10.7850647 C-1.0033493 9.80750214 -1.0202179 8.82993958 -1.03759766 7.82275391 C-1.05456696 6.96195221 -1.07153625 6.10115051 -1.08901978 5.21426392 C-1 3 -1 3 0 0 Z " fill="#212D43" transform="translate(199,82)"/>
<path d="M0 0 C0.55171875 0.16371094 1.1034375 0.32742187 1.671875 0.49609375 C4.26614007 1.05760414 6.59835411 1.09739008 9.25 1.0625 C10.14203125 1.05347656 11.0340625 1.04445313 11.953125 1.03515625 C12.62859375 1.02355469 13.3040625 1.01195313 14 1 C14.82638376 3.89234315 15 5.88742431 15 9 C9.25 8.25 9.25 8.25 7 6 C4.67642489 5.81509993 4.67642489 5.81509993 2 8 C1.34 8 0.68 8 0 8 C-0.99 8.33 -1.98 8.66 -3 9 C-3 8.01 -3 7.02 -3 6 C-3.99 6.33 -4.98 6.66 -6 7 C-5 4 -5 4 -3 2.9375 C-2.34 2.628125 -1.68 2.31875 -1 2 C-0.67 1.34 -0.34 0.68 0 0 Z " fill="#163054" transform="translate(508,124)"/>
<path d="M0 0 C0.33 0 0.66 0 1 0 C1.12375 1.0725 1.2475 2.145 1.375 3.25 C1.89643936 6.37863615 2.40088254 8.33480424 4 11 C7.62793998 9.13433512 7.62793998 9.13433512 10 6 C11.32 6 12.64 6 14 6 C14 7.32 14 8.64 14 10 C14.99 10.33 15.98 10.66 17 11 C17 11.66 17 12.32 17 13 C11.77348066 16.03867403 11.77348066 16.03867403 8.5 15.875 C0.62068966 13.11724138 0.62068966 13.11724138 -0.9375 10.3125 C-1.03239888 6.80124139 -0.52103211 3.47354743 0 0 Z " fill="#1E7ABD" transform="translate(90,82)"/>
<path d="M0 0 C1.04449911 3.13349732 0.93423645 3.98968256 0 7 C-0.886875 6.896875 -1.77375 6.79375 -2.6875 6.6875 C-7.05333713 7.09937143 -8.07853506 8.85380699 -11 12 C-12.64797236 12.71162443 -14.31165408 13.39031953 -16 14 C-16.33 14.66 -16.66 15.32 -17 16 C-18.32 16 -19.64 16 -21 16 C-20.67 17.32 -20.34 18.64 -20 20 C-20.99 20.33 -21.98 20.66 -23 21 C-23.33 21.99 -23.66 22.98 -24 24 C-24.66 23.67 -25.32 23.34 -26 23 C-22.45239228 15.31351661 -18.58503847 11.60487154 -11.4375 7.25 C-10.66986328 6.76917969 -9.90222656 6.28835937 -9.11132812 5.79296875 C-7.69033539 4.90345455 -6.26613147 4.01903333 -4.83764648 3.14160156 C-3.20440208 2.12698076 -1.59981931 1.06654621 0 0 Z " fill="#6CB9D4" transform="translate(54,105)"/>
<path d="M0 0 C0.05384521 2.29141286 0.09272087 4.58318188 0.125 6.875 C0.14820312 8.15117188 0.17140625 9.42734375 0.1953125 10.7421875 C0 14 0 14 -2 16 C-2.33 15.01 -2.66 14.02 -3 13 C-3.99 13.495 -3.99 13.495 -5 14 C-5.99 12.35 -6.98 10.7 -8 9 C-8.33 9.99 -8.66 10.98 -9 12 C-9.99 11.67 -10.98 11.34 -12 11 C-11.67 10.01 -11.34 9.02 -11 8 C-10.34 8 -9.68 8 -9 8 C-9 7.34 -9 6.68 -9 6 C-7.5390625 4.4921875 -7.5390625 4.4921875 -5.625 2.875 C-4.99851562 2.33617187 -4.37203125 1.79734375 -3.7265625 1.2421875 C-2 0 -2 0 0 0 Z " fill="#12233E" transform="translate(116,32)"/>
<path d="M0 0 C2.13816198 1.06908099 3.63104758 2.31329275 5.4375 3.875 C6.03433594 4.38804688 6.63117188 4.90109375 7.24609375 5.4296875 C8.89055773 6.90201383 10.45618573 8.42313771 12 10 C10.35 10.33 8.7 10.66 7 11 C6.67 11.99 6.34 12.98 6 14 C5.34 14 4.68 14 4 14 C3.01 15.485 3.01 15.485 2 17 C0.7017874 11.23918159 -0.25706972 5.91260345 0 0 Z " fill="#2E71A3" transform="translate(91,122)"/>
<path d="M0 0 C3.96048221 3.72045298 7.19867585 7.75609803 10.44921875 12.109375 C11.87182968 14.10588458 11.87182968 14.10588458 14 15 C14 16.65 14 18.3 14 20 C12.741875 19.87625 11.48375 19.7525 10.1875 19.625 C9.47980469 19.55539063 8.77210938 19.48578125 8.04296875 19.4140625 C6 19 6 19 3 17 C4.98 17 6.96 17 9 17 C8.43457996 15.67968405 7.84693528 14.3688699 7.25 13.0625 C6.92515625 12.33160156 6.6003125 11.60070312 6.265625 10.84765625 C5.13830628 8.81193356 5.13830628 8.81193356 2.859375 8.24609375 C2.24578125 8.16488281 1.6321875 8.08367187 1 8 C1.33 6.68 1.66 5.36 2 4 C1.34 3.67 0.68 3.34 0 3 C0 2.01 0 1.02 0 0 Z " fill="#6CBFDD" transform="translate(127,122)"/>
<path d="M0 0 C0.99 0.33 1.98 0.66 3 1 C3.33988445 2.33167843 3.6724218 3.66524107 4 5 C5.50401878 6.68905263 5.50401878 6.68905263 7.375 8.125 C8.28378906 8.87136719 8.28378906 8.87136719 9.2109375 9.6328125 C10.76146363 10.81771238 12.37630357 11.91753571 14 13 C13.67 13.99 13.34 14.98 13 16 C11.9275 15.360625 10.855 14.72125 9.75 14.0625 C7.59805101 12.80430402 6.23449309 12.03256848 3.75 11.6875 C2 11 2 11 0.1875 7.6875 C-1.32117438 3.00266904 -1.32117438 3.00266904 0 0 Z " fill="#123363" transform="translate(49,57)"/>
<path d="M0 0 C1.32 0.33 2.64 0.66 4 1 C4 1.66 4 2.32 4 3 C4.99 3 5.98 3 7 3 C7.33 2.34 7.66 1.68 8 1 C8.268125 1.804375 8.53625 2.60875 8.8125 3.4375 C9.204375 4.283125 9.59625 5.12875 10 6 C10.99 6.33 11.98 6.66 13 7 C13 7.66 13 8.32 13 9 C13.66 9.33 14.32 9.66 15 10 C15.33333333 11.33333333 15.66666667 12.66666667 16 14 C16.66 14.33 17.32 14.66 18 15 C18.33 14.34 18.66 13.68 19 13 C19.33 14.32 19.66 15.64 20 17 C15.98214312 16.483635 14.05065986 15.54472935 11.23046875 12.65625 C10.56982422 11.98722656 9.90917969 11.31820312 9.22851562 10.62890625 C8.55498047 9.92636719 7.88144531 9.22382813 7.1875 8.5 C6.49462891 7.79746094 5.80175781 7.09492188 5.08789062 6.37109375 C0 1.16791102 0 1.16791102 0 0 Z " fill="#226DA2" transform="translate(98,152)"/>
<path d="M0 0 C0 0.66 0 1.32 0 2 C-2.31 2 -4.62 2 -7 2 C-6.72382467 3.94074861 -6.72382467 3.94074861 -6 6 C-5.01 6.66 -4.02 7.32 -3 8 C-3 8.66 -3 9.32 -3 10 C-4.98260599 9.57835981 -6.96107245 9.13721222 -8.9375 8.6875 C-10.03964844 8.44386719 -11.14179688 8.20023438 -12.27734375 7.94921875 C-13.17582031 7.63597656 -14.07429687 7.32273437 -15 7 C-15.33 6.01 -15.66 5.02 -16 4 C-14.08594633 3.32586789 -12.16863974 2.6609668 -10.25 2 C-9.18265625 1.62875 -8.1153125 1.2575 -7.015625 0.875 C-4 0 -4 0 0 0 Z " fill="#236E97" transform="translate(23,95)"/>
<path d="M0 0 C0.66 0 1.32 0 2 0 C2.16986545 1.56215548 2.33573964 3.1247452 2.5 4.6875 C2.5928125 5.55761719 2.685625 6.42773438 2.78125 7.32421875 C2.99159864 9.89723339 3.03719144 12.41984364 3 15 C4.2065625 15.433125 4.2065625 15.433125 5.4375 15.875 C8 17 8 17 9 19 C11.02463255 19.65213292 11.02463255 19.65213292 13 20 C13 19.34 13 18.68 13 18 C13.99 18.33 14.98 18.66 16 19 C14.8125 20.5625 14.8125 20.5625 13 22 C8.92441252 22 5.63797092 20.04173088 2.44921875 17.6484375 C-0.27654196 14.54797653 -0.04048224 10.96051248 0 7 C-0.01289062 6.29488281 -0.02578125 5.58976562 -0.0390625 4.86328125 C-0.05879101 3.24225526 -0.03448466 1.62077923 0 0 Z " fill="#2B76AA" transform="translate(69,64)"/>
<path d="M0 0 C1.9609375 0.26953125 1.9609375 0.26953125 4.375 0.8125 C5.56222656 1.06966797 5.56222656 1.06966797 6.7734375 1.33203125 C9 2 9 2 12 4 C9 6 9 6 6 6 C5.34 7.32 4.68 8.64 4 10 C3.67 9.01 3.34 8.02 3 7 C2.01 7 1.02 7 0 7 C-0.38133299 5.0085944 -0.71325582 3.00720923 -1 1 C-0.67 0.67 -0.34 0.34 0 0 Z " fill="#0D1D35" transform="translate(19,58)"/>
<path d="M0 0 C4.58313815 6.87470722 3.12343773 17.01769358 3 25 C2.01 25 1.02 25 0 25 C0 16.75 0 8.5 0 0 Z " fill="#0C1C35" transform="translate(408,84)"/>
<path d="M0 0 C1.4606285 2.64738916 2 3.89448334 2 7 C5.465 6.505 5.465 6.505 9 6 C8.02738378 9.27152729 7.34232413 10.74545129 4.5625 12.8125 C2 14 2 14 -1 14 C-1.18451025 4.58997722 -1.18451025 4.58997722 0 0 Z " fill="#0B2036" transform="translate(44,155)"/>
<path d="M0 0 C0.66 0 1.32 0 2 0 C2.37104708 7.54462403 2.37104708 7.54462403 0.625 9.6875 C0.08875 10.120625 -0.4475 10.55375 -1 11 C-3.20011101 15.40022201 -4.0195451 20.21245961 -5 25 C-5.33 25 -5.66 25 -6 25 C-6.98593711 15.7979203 -3.44150412 8.347696 0 0 Z " fill="#2C76AB" transform="translate(75,31)"/>
<path d="M0 0 C0.33 1.32 0.66 2.64 1 4 C0.34 4 -0.32 4 -1 4 C-0.67 5.98 -0.34 7.96 0 10 C0.99 9.67 1.98 9.34 3 9 C5 12 5 12 4.625 14.1875 C4.41875 14.785625 4.2125 15.38375 4 16 C-0.8004578 14.60350318 -0.8004578 14.60350318 -3 13 C-4.44875029 9.24108034 -4.27080429 5.81241288 -3 2 C-2.01 1.34 -1.02 0.68 0 0 Z " fill="#142B40" transform="translate(473,121)"/>
<path d="M0 0 C0.99 0.99 1.98 1.98 3 3 C2.6875 5.1875 2.6875 5.1875 2 7 C2.66 7 3.32 7 4 7 C4.33 7.66 4.66 8.32 5 9 C6.98 9 8.96 9 11 9 C11 9.66 11 10.32 11 11 C10.071875 11.12375 10.071875 11.12375 9.125 11.25 C6.81562433 11.81258459 6.81562433 11.81258459 5.75 14.0625 C5.5025 14.701875 5.255 15.34125 5 16 C4.01 15.67 3.02 15.34 2 15 C2 14.34 2 13.68 2 13 C2.66 12.67 3.32 12.34 4 12 C2.68 11.34 1.36 10.68 0 10 C0 6.7 0 3.4 0 0 Z " fill="#19559E" transform="translate(89,66)"/>
<path d="M0 0 C0.99 0.33 1.98 0.66 3 1 C1.39214778 3.64085405 0.06199647 5.61698046 -2.92382812 6.69384766 C-5.19489466 7.16216634 -7.45063001 7.51316245 -9.75 7.8125 C-10.54277344 7.93302734 -11.33554687 8.05355469 -12.15234375 8.17773438 C-14.09878862 8.47087366 -16.04911476 8.73803615 -18 9 C-18.33 8.34 -18.66 7.68 -19 7 C-18.04738281 6.74605469 -17.09476563 6.49210938 -16.11328125 6.23046875 C-14.85902344 5.88628906 -13.60476562 5.54210937 -12.3125 5.1875 C-11.07113281 4.85105469 -9.82976563 4.51460937 -8.55078125 4.16796875 C-5.01658421 3.1565848 -5.01658421 3.1565848 -2.23046875 1.30078125 C-1.49441406 0.87152344 -0.75835937 0.44226563 0 0 Z " fill="#66B3D5" transform="translate(50,130)"/>
<path d="M0 0 C2.89448082 2.39109285 3.62813667 4.28136671 4 8 C3.67 8.99 3.34 9.98 3 11 C3.66 11 4.32 11 5 11 C4.67 11.99 4.34 12.98 4 14 C2.68 14 1.36 14 0 14 C-1.33224462 10.00326615 -1.13442113 6.16705497 -1 2 C-0.67 1.34 -0.34 0.68 0 0 Z " fill="#1660A5" transform="translate(113,152)"/>
<path d="M0 0 C0.66 0.66 1.32 1.32 2 2 C1.92578125 3.8984375 1.92578125 3.8984375 1 6 C-1.14453125 7.8515625 -1.14453125 7.8515625 -3.8125 9.625 C-4.68519531 10.21539062 -5.55789062 10.80578125 -6.45703125 11.4140625 C-8.59913008 12.7499951 -10.71856244 13.92575667 -13 15 C-13 14.01 -13 13.02 -13 12 C-12.01 12 -11.02 12 -10 12 C-10.33 11.01 -10.66 10.02 -11 9 C-4.375 6 -4.375 6 -1 6 C-1.020625 5.195625 -1.04125 4.39125 -1.0625 3.5625 C-1 1 -1 1 0 0 Z " fill="#6EB2D2" transform="translate(67,115)"/>
<path d="M0 0 C0.33 0 0.66 0 1 0 C1 4.62 1 9.24 1 14 C0.34 14 -0.32 14 -1 14 C-0.01 15.485 -0.01 15.485 1 17 C0.625 20.1875 0.625 20.1875 0 23 C-0.66 22.67 -1.32 22.34 -2 22 C-3.94297414 14.37756298 -1.8623402 7.4914476 0 0 Z " fill="#08123F" transform="translate(411,109)"/>
<path d="M0 0 C0.66 0.99 1.32 1.98 2 3 C4.56282742 3.72965366 4.56282742 3.72965366 7 4 C6 7 6 7 4 9 C3.67 9.99 3.34 10.98 3 12 C2.34 11.67 1.68 11.34 1 11 C1 10.34 1 9.68 1 9 C0.01 8.67 -0.98 8.34 -2 8 C-1.125 1.125 -1.125 1.125 0 0 Z " fill="#0F2949" transform="translate(291,113)"/>
<path d="M0 0 C3.0868684 1.34555802 5.71068404 3.09665593 8.4375 5.0625 C7.4475 5.5575 7.4475 5.5575 6.4375 6.0625 C5.674375 5.5675 4.91125 5.0725 4.125 4.5625 C1.57726974 2.8417846 1.57726974 2.8417846 -1.125 3.125 C-4.15026548 4.28856365 -5.61718941 5.46875255 -7.5625 8.0625 C-7.89748301 10.73084966 -7.89748301 10.73084966 -7.5625 13.0625 C-8.5525 13.5575 -8.5525 13.5575 -9.5625 14.0625 C-9.98815813 10.96127647 -10.14995759 8.14922891 -9.5625 5.0625 C-7.00883891 1.83796184 -4.12194023 0.10053513 0 0 Z " fill="#5EA5C3" transform="translate(99.5625,101.9375)"/>
<path d="M0 0 C4.59306496 1.4859916 7.43569245 3.85014682 11 7 C10.67 8.65 10.34 10.3 10 12 C9.67 10.68 9.34 9.36 9 8 C8.34 8 7.68 8 7 8 C7 9.98 7 11.96 7 14 C6.34 14 5.68 14 5 14 C4.67 10.7 4.34 7.4 4 4 C3.34 4 2.68 4 2 4 C2 3.34 2 2.68 2 2 C1.34 2 0.68 2 0 2 C0 1.34 0 0.68 0 0 Z " fill="#183555" transform="translate(79,114)"/>
<path d="M0 0 C0.33 0 0.66 0 1 0 C1.0825 1.051875 1.165 2.10375 1.25 3.1875 C2.07603992 7.38653624 2.91596157 9.08266635 6 12 C9.12133744 13.34772903 9.12133744 13.34772903 12 14 C11.67 14.66 11.34 15.32 11 16 C6.86894386 15.39249174 3.56700675 14.18884505 0 12 C-1.96799775 8.45760406 -0.57466791 3.83111937 0 0 Z " fill="#2D6EA5" transform="translate(90,82)"/>
<path d="M0 0 C-0.99 0.495 -0.99 0.495 -2 1 C-2.33 1.66 -2.66 2.32 -3 3 C-4.68624851 3.72740132 -6.37472877 4.45043308 -8.078125 5.13671875 C-10.96984851 6.43564333 -13.4155406 8.17196774 -16 10 C-16.66 9.34 -17.32 8.68 -18 8 C-17.34 8 -16.68 8 -16 8 C-16 7.34 -16 6.68 -16 6 C-14.68 6 -13.36 6 -12 6 C-11.79375 5.401875 -11.5875 4.80375 -11.375 4.1875 C-8.79308636 0.07991012 -4.60433541 -1.94798806 0 0 Z " fill="#21669D" transform="translate(125,83)"/>
<path d="M0 0 C3.96 0 7.92 0 12 0 C12.33 2.97 12.66 5.94 13 9 C12.34 9 11.68 9 11 9 C10.773125 8.360625 10.54625 7.72125 10.3125 7.0625 C9.14749104 4.72806339 9.14749104 4.72806339 6.375 4.25 C5.59125 4.1675 4.8075 4.085 4 4 C4 3.34 4 2.68 4 2 C2.68 2 1.36 2 0 2 C0 1.34 0 0.68 0 0 Z " fill="#23334C" transform="translate(200,82)"/>
<path d="M0 0 C0.763125 0.515625 1.52625 1.03125 2.3125 1.5625 C4.61537793 0.87109649 4.61537793 0.87109649 6.3125 -0.4375 C6.3125 0.8825 6.3125 2.2025 6.3125 3.5625 C1.65527373 4.91459795 -2.99130339 4.62352674 -7.6875 3.5625 C-8.3475 2.9025 -9.0075 2.2425 -9.6875 1.5625 C-3.35073907 -1.79225578 -3.35073907 -1.79225578 0 0 Z " fill="#1B2A44" transform="translate(181.6875,131.4375)"/>
<path d="M0 0 C0.77321882 2.98241547 1.41196203 5.97580475 2 9 C2.66 9 3.32 9 4 9 C3.67 9.66 3.34 10.32 3 11 C-0.4375 10.1875 -0.4375 10.1875 -4 9 C-5.04187157 5.87438528 -5.23843794 4.95319818 -4 2 C-1.9375 0.75 -1.9375 0.75 0 0 Z " fill="#0E1F37" transform="translate(453,107)"/>
<path d="M0 0 C0.66 0 1.32 0 2 0 C2.20496094 0.71027344 2.40992188 1.42054687 2.62109375 2.15234375 C2.89050781 3.07144531 3.15992188 3.99054687 3.4375 4.9375 C3.83775391 6.31228516 3.83775391 6.31228516 4.24609375 7.71484375 C4.79026051 9.9402493 4.79026051 9.9402493 6 11 C6.04080783 12.99958364 6.04254356 15.00045254 6 17 C5.34 17.33 4.68 17.66 4 18 C3.49363393 16.25183142 2.99515381 14.50137737 2.5 12.75 C2.2215625 11.77546875 1.943125 10.8009375 1.65625 9.796875 C1 7 1 7 1 3 C0.34 3 -0.32 3 -1 3 C-0.67 2.01 -0.34 1.02 0 0 Z " fill="#1C3B6C" transform="translate(44,40)"/>
<path d="M0 0 C1.37562854 1.28965176 2.70766393 2.62689293 4 4 C4 4.66 4 5.32 4 6 C9.445 5.01 9.445 5.01 15 4 C14.67 4.99 14.34 5.98 14 7 C10.6888987 8.10370043 8.75251051 7.92673641 5.3125 7.5625 C4.31863281 7.46066406 3.32476562 7.35882813 2.30078125 7.25390625 C1.54152344 7.17011719 0.78226562 7.08632812 0 7 C-1.04449911 3.86650268 -0.93423645 3.01031744 0 0 Z " fill="#121F2C" transform="translate(397,128)"/>
<path d="M0 0 C1.98 0.66 3.96 1.32 6 2 C6 2.66 6 3.32 6 4 C6.99 4.33 7.98 4.66 9 5 C9 5.99 9 6.98 9 8 C7.02 8.33 5.04 8.66 3 9 C2.87625 8.195625 2.7525 7.39125 2.625 6.5625 C2.315625 5.2940625 2.315625 5.2940625 2 4 C1.34 3.67 0.68 3.34 0 3 C0 2.01 0 1.02 0 0 Z " fill="#2B6E9A" transform="translate(48,94)"/>
<path d="M0 0 C0.33 0.66 0.66 1.32 1 2 C0.14728516 1.83951172 0.14728516 1.83951172 -0.72265625 1.67578125 C-6.5231583 0.77520247 -9.59057308 1.49563568 -15 4 C-18.9375 4.1875 -18.9375 4.1875 -22 4 C-19.29647561 1.29647561 -16.27713306 0.72183583 -12.6875 -0.25 C-12.02298828 -0.44851562 -11.35847656 -0.64703125 -10.67382812 -0.8515625 C-6.44833239 -2.0051103 -3.82203069 -2.26596941 0 0 Z " fill="#2C6595" transform="translate(45,91)"/>
<path d="M0 0 C0 0.66 0 1.32 0 2 C-1.32 2 -2.64 2 -4 2 C-4 2.66 -4 3.32 -4 4 C-7.56045177 5.18681726 -10.43808337 5.09689832 -14.1875 5.0625 C-15.45980469 5.05347656 -16.73210937 5.04445313 -18.04296875 5.03515625 C-19.50669922 5.01775391 -19.50669922 5.01775391 -21 5 C-21 4.67 -21 4.34 -21 4 C-18.25124318 3.32781493 -15.50119274 2.66207565 -12.75 2 C-11.97269531 1.80921875 -11.19539063 1.6184375 -10.39453125 1.421875 C-9.64042969 1.24140625 -8.88632813 1.0609375 -8.109375 0.875 C-7.41811523 0.70742188 -6.72685547 0.53984375 -6.01464844 0.3671875 C-4 0 -4 0 0 0 Z " fill="#236E9E" transform="translate(136,60)"/>
<path d="M0 0 C0.33 0 0.66 0 1 0 C1 7.59 1 15.18 1 23 C0.67 23 0.34 23 0 23 C0 21.02 0 19.04 0 17 C-0.66 17 -1.32 17 -2 17 C-2.21824777 10.9981863 -1.5056904 5.80766296 0 0 Z " fill="#1B69BE" transform="translate(71,47)"/>
<path d="M0 0 C14.78132118 3.07517084 14.78132118 3.07517084 21 5 C21 5.66 21 6.32 21 7 C16.72379977 6.53350543 12.4789682 5.97999321 8.25 5.1875 C7.17492187 4.99220703 7.17492187 4.99220703 6.078125 4.79296875 C3.3737254 3.7610268 1.91684624 2.12839008 0 0 Z " fill="#70BCD6" transform="translate(109,132)"/>
<path d="M0 0 C0 3 0 3 -1.5 4.6875 C-1.995 5.120625 -2.49 5.55375 -3 6 C-2.071875 6.226875 -1.14375 6.45375 -0.1875 6.6875 C3.50719183 8.2088437 4.32482761 9.46352496 6 13 C1.69235185 11.43358249 -2.06171464 9.31663844 -6 7 C-6 6.01 -6 5.02 -6 4 C-3 1.8125 -3 1.8125 0 0 Z " fill="#224E7A" transform="translate(108,95)"/>
<path d="M0 0 C6.09088954 1.40558989 10.8765166 3.340369 16 7 C12.17660695 8.27446435 10.72994863 7.34278151 7 6 C5.33911955 5.63893903 3.67381019 5.29537827 2 5 C2 3.68 2 2.36 2 1 C1.34 0.67 0.68 0.34 0 0 Z " fill="#60BDDF" transform="translate(98,104)"/>
<path d="M0 0 C0.66 0.33 1.32 0.66 2 1 C2.38749213 3.32495277 2.71758117 5.6599583 3 8 C3.33 8.99 3.66 9.98 4 11 C2.5625 13.6875 2.5625 13.6875 1 16 C-1.26273207 12.44181064 -1.07331744 9.87452049 -0.625 5.75 C-0.51414062 4.67234375 -0.40328125 3.5946875 -0.2890625 2.484375 C-0.19367188 1.66453125 -0.09828125 0.8446875 0 0 Z " fill="#0E2641" transform="translate(87,144)"/>
<path d="M0 0 C0.66 1.32 1.32 2.64 2 4 C6.96551325 4.35606813 6.96551325 4.35606813 11.4375 2.5 C11.953125 2.005 12.46875 1.51 13 1 C13.66 2.32 14.32 3.64 15 5 C11.99686252 6.50156874 9.20932478 6.09281204 5.875 6.0625 C4.59367187 6.05347656 3.31234375 6.04445312 1.9921875 6.03515625 C0.51105469 6.01775391 0.51105469 6.01775391 -1 6 C-0.67 4.02 -0.34 2.04 0 0 Z " fill="#202E47" transform="translate(348,129)"/>
<path d="M0 0 C-0.33 0.99 -0.66 1.98 -1 3 C-1.70125 2.95875 -2.4025 2.9175 -3.125 2.875 C-6.38371628 3.01668332 -8.9559947 3.86734686 -12 5 C-12.33 3.35 -12.66 1.7 -13 0 C-11.58456585 -0.19658808 -10.16755969 -0.38187546 -8.75 -0.5625 C-7.96109375 -0.66691406 -7.1721875 -0.77132812 -6.359375 -0.87890625 C-3.99467126 -1.00027349 -2.2488963 -0.69633257 0 0 Z " fill="#212C42" transform="translate(466,82)"/>
<path d="M0 0 C0.66 0.33 1.32 0.66 2 1 C2 1.66 2 2.32 2 3 C2.99 3.33 3.98 3.66 5 4 C2.69 4.33 0.38 4.66 -2 5 C-2 5.66 -2 6.32 -2 7 C-2.99 6.67 -3.98 6.34 -5 6 C-6.99961564 5.96079185 -9.00049364 5.95556653 -11 6 C-7.31265242 3.54176828 -4.30300029 2.98757384 0 2 C0 1.34 0 0.68 0 0 Z " fill="#0F223B" transform="translate(508,102)"/>
<path d="M0 0 C2.15854239 2.15854239 3.45499913 4.38021592 5 7 C5.33 7.33 5.66 7.66 6 8 C6.04063832 9.66617115 6.042721 11.33388095 6 13 C5.01 13.33 4.02 13.66 3 14 C2.938125 13.113125 2.87625 12.22625 2.8125 11.3125 C1.81627493 7.25096703 0.02201324 5.78955068 -3 3 C-3 2.34 -3 1.68 -3 1 C-2.01 0.67 -1.02 0.34 0 0 Z " fill="#102039" transform="translate(427,96)"/>
<path d="M0 0 C0.33 0 0.66 0 1 0 C1.33 6.6 1.66 13.2 2 20 C1.34 20.33 0.68 20.66 0 21 C-0.99 20.67 -1.98 20.34 -3 20 C-3.33 19.01 -3.66 18.02 -4 17 C-3.34 17 -2.68 17 -2 17 C-0.47893366 13.95786733 -0.62570662 10.71952428 -0.4375 7.375 C-0.39431641 6.66859375 -0.35113281 5.9621875 -0.30664062 5.234375 C-0.20055249 3.48981463 -0.09977111 1.74493303 0 0 Z " fill="#204365" transform="translate(66,55)"/>
<path d="M0 0 C5.75 1.875 5.75 1.875 8 3 C8.33333333 4.33333333 8.66666667 5.66666667 9 7 C9.66 7.33 10.32 7.66 11 8 C11.33 7.34 11.66 6.68 12 6 C12.33 7.32 12.66 8.64 13 10 C8.61560205 9.50857886 6.69757655 8.17446868 3.6875 5 C2.99011719 4.278125 2.29273437 3.55625 1.57421875 2.8125 C0 1 0 1 0 0 Z " fill="#33699A" transform="translate(105,159)"/>
<path d="M0 0 C0.625 1.8125 0.625 1.8125 1 4 C0.01 5.485 0.01 5.485 -1 7 C-1.66 7 -2.32 7 -3 7 C-3 7.66 -3 8.32 -3 9 C-3.66 9 -4.32 9 -5 9 C-5 8.01 -5 7.02 -5 6 C-5.66 5.67 -6.32 5.34 -7 5 C-6.67 4.34 -6.34 3.68 -6 3 C-2.9375 2.375 -2.9375 2.375 0 2 C0 1.34 0 0.68 0 0 Z " fill="#203149" transform="translate(66,144)"/>
<path d="M0 0 C2.475 0.495 2.475 0.495 5 1 C5 1.66 5 2.32 5 3 C7.31 3.66 9.62 4.32 12 5 C11.67 6.32 11.34 7.64 11 9 C11 8.34 11 7.68 11 7 C10.113125 6.938125 9.22625 6.87625 8.3125 6.8125 C4.24492679 5.81479336 2.67626159 4.14854304 0 1 C0 0.67 0 0.34 0 0 Z " fill="#15293A" transform="translate(295,127)"/>
<path d="M0 0 C6.18075464 2.24754714 11.58061196 5.0502854 16 10 C15.67 10.66 15.34 11.32 15 12 C13.24673802 10.75457942 11.49752378 9.50345947 9.75 8.25 C8.77546875 7.55390625 7.8009375 6.8578125 6.796875 6.140625 C4.30766704 4.23547701 2.15028061 2.27315379 0 0 Z " fill="#6AB2CC" transform="translate(92,120)"/>
<path d="M0 0 C0.99 0 1.98 0 3 0 C3 0.66 3 1.32 3 2 C3.804375 2.12375 4.60875 2.2475 5.4375 2.375 C6.7059375 2.684375 6.7059375 2.684375 8 3 C8.33 3.66 8.66 4.32 9 5 C6.29120665 6.35439668 3.99066732 6.06501451 1 6 C0.67 4.02 0.34 2.04 0 0 Z " fill="#1C3A62" transform="translate(43,32)"/>
<path d="M0 0 C0.66 0 1.32 0 2 0 C2 3.96 2 7.92 2 12 C1.34 10.68 0.68 9.36 0 8 C-0.66 7.67 -1.32 7.34 -2 7 C-2.125 4.625 -2.125 4.625 -2 2 C-1.34 1.34 -0.68 0.68 0 0 Z " fill="#0F2740" transform="translate(65,126)"/>
<path d="M0 0 C-0.020625 0.928125 -0.04125 1.85625 -0.0625 2.8125 C-0.15769604 6.02286011 -0.15769604 6.02286011 1 9 C-2.78639125 7.73786958 -3.04104596 6.34654649 -5 3 C-5.99 2.34 -6.98 1.68 -8 1 C-5.29120665 -0.35439668 -2.99066732 -0.06501451 0 0 Z " fill="#112740" transform="translate(305,112)"/>
<path d="M0 0 C0 2.31 0 4.62 0 7 C-1.65 6.67 -3.3 6.34 -5 6 C-5.33 4.35 -5.66 2.7 -6 1 C-4 0 -4 0 0 0 Z " fill="#163258" transform="translate(524,84)"/>
<path d="M0 0 C2.64 0 5.28 0 8 0 C7.01 0.33 6.02 0.66 5 1 C5.33 3.64 5.66 6.28 6 9 C5.38125 8.195625 4.7625 7.39125 4.125 6.5625 C2.25835959 3.96125481 2.25835959 3.96125481 0 3 C0 2.01 0 1.02 0 0 Z " fill="#172539" transform="translate(416,82)"/>
<path d="M0 0 C0.33 0 0.66 0 1 0 C1.04898437 0.60328125 1.09796875 1.2065625 1.1484375 1.828125 C1.22320312 2.62734375 1.29796875 3.4265625 1.375 4.25 C1.44460938 5.03890625 1.51421875 5.8278125 1.5859375 6.640625 C2.01507113 9.085877 2.78600638 10.84836903 4 13 C3.01 13.495 3.01 13.495 2 14 C-2.04945055 7.74175824 -2.04945055 7.74175824 -1.8125 4.1875 C-1 2 -1 2 0 0 Z " fill="#132439" transform="translate(397,63)"/>
<path d="M0 0 C1.37562854 1.28965176 2.70766393 2.62689293 4 4 C4 4.66 4 5.32 4 6 C4.66 6.33 5.32 6.66 6 7 C5.67 7.66 5.34 8.32 5 9 C2.50638429 7.79618552 0.31856917 6.54571278 -2 5 C-2 4.34 -2 3.68 -2 3 C-1.34 3 -0.68 3 0 3 C0 2.01 0 1.02 0 0 Z " fill="#122346" transform="translate(331,85)"/>
<path d="M0 0 C0.66 0.33 1.32 0.66 2 1 C1.34 4.3 0.68 7.6 0 11 C-1.66666667 9.33333333 -3.33333333 7.66666667 -5 6 C-3.35 4.02 -1.7 2.04 0 0 Z " fill="#0E2542" transform="translate(285,84)"/>
<path d="M0 0 C0.99 0.33 1.98 0.66 3 1 C1.20963542 1.94401042 -0.58072917 2.88802083 -2.37109375 3.83203125 C-4.32267987 4.99019799 -4.32267987 4.99019799 -5 8 C-8.5625 9.1875 -8.5625 9.1875 -12 10 C-8.30166776 6.07752641 -4.57577783 2.8810453 0 0 Z " fill="#296A9A" transform="translate(112,65)"/>
<path d="M0 0 C1.42944945 2.35438733 2.08661261 3.48032433 1.625 6.25 C1.41875 6.8275 1.2125 7.405 1 8 C0.34 7.67 -0.32 7.34 -1 7 C-1.66 7.99 -2.32 8.98 -3 10 C-3.99928333 7.301935 -4.03624754 6.11989571 -3.1875 3.3125 C-2 1 -2 1 0 0 Z " fill="#256590" transform="translate(94,142)"/>
<path d="M0 0 C2.475 0.495 2.475 0.495 5 1 C5.82638376 3.89234315 6 5.88742431 6 9 C5.01 9.495 5.01 9.495 4 10 C4 9.34 4 8.68 4 8 C3.34 8 2.68 8 2 8 C1.06576355 4.98968256 0.95550089 4.13349732 2 1 C1.34 0.67 0.68 0.34 0 0 Z " fill="#101D38" transform="translate(281,123)"/>
<path d="M0 0 C0.66 0.66 1.32 1.32 2 2 C1.625 5.125 1.625 5.125 1 8 C-0.32 8.33 -1.64 8.66 -3 9 C-3.1875 5.625 -3.1875 5.625 -3 2 C-2.01 1.34 -1.02 0.68 0 0 Z " fill="#0C2541" transform="translate(374,127)"/>
<path d="M0 0 C3.93846154 4.30769231 3.93846154 4.30769231 4.25 7.8125 C4.1675 8.534375 4.085 9.25625 4 10 C3.01 10.33 2.02 10.66 1 11 C1 10.34 1 9.68 1 9 C0.34 8.67 -0.32 8.34 -1 8 C-0.67 7.34 -0.34 6.68 0 6 C-0.165 5.34 -0.33 4.68 -0.5 4 C-1 2 -1 2 0 0 Z " fill="#0F2640" transform="translate(483,120)"/>
<path d="M0 0 C1.2065625 0.0309375 1.2065625 0.0309375 2.4375 0.0625 C2.7675 2.3725 3.0975 4.6825 3.4375 7.0625 C0.4675 6.5675 0.4675 6.5675 -2.5625 6.0625 C-2.94468767 4.40635343 -3.27645102 2.73792976 -3.5625 1.0625 C-2.5625 0.0625 -2.5625 0.0625 0 0 Z " fill="#58C8E5" transform="translate(93.5625,114.9375)"/>
<path d="M0 0 C1.04449911 3.13349732 0.93423645 3.98968256 0 7 C-0.94875 6.979375 -1.8975 6.95875 -2.875 6.9375 C-5.90666283 6.77448174 -5.90666283 6.77448174 -8 8 C-8 7.01 -8 6.02 -8 5 C-6.25 3.61328125 -6.25 3.61328125 -4 2.3125 C-3.2575 1.87550781 -2.515 1.43851562 -1.75 0.98828125 C-1.1725 0.66214844 -0.595 0.33601563 0 0 Z " fill="#63C0DB" transform="translate(54,105)"/>
<path d="M0 0 C5.61589298 -0.29047722 9.09825932 -0.10842092 14 3 C14.33 3.66 14.66 4.32 15 5 C13.06077578 4.54901762 11.12366406 4.08894441 9.1875 3.625 C8.10855469 3.36976562 7.02960937 3.11453125 5.91796875 2.8515625 C3 2 3 2 0 0 Z " fill="#2D6DA0" transform="translate(21,105)"/>
<path d="M0 0 C0 0.99 0 1.98 0 3 C-0.66 3 -1.32 3 -2 3 C-2.4021875 3.86625 -2.4021875 3.86625 -2.8125 4.75 C-4.01719859 7.0325868 -5.40798115 8.9737942 -7 11 C-7.33 9.35 -7.66 7.7 -8 6 C-6.68 5.67 -5.36 5.34 -4 5 C-4.33 3.68 -4.66 2.36 -5 1 C-2 0 -2 0 0 0 Z " fill="#2164A5" transform="translate(132,72)"/>
<path d="M0 0 C2.28304899 0.0179485 4.52425196 0.11763285 6.796875 0.33203125 C6.796875 0.66203125 6.796875 0.99203125 6.796875 1.33203125 C4.486875 1.66203125 2.176875 1.99203125 -0.203125 2.33203125 C-0.203125 3.98203125 -0.203125 5.63203125 -0.203125 7.33203125 C-2.678125 6.34203125 -2.678125 6.34203125 -5.203125 5.33203125 C-4.06475685 2.29638286 -3.36675282 0.50740069 0 0 Z " fill="#0B1B44" transform="translate(264.203125,67.66796875)"/>
<path d="M0 0 C0.66 0 1.32 0 2 0 C2.82622671 5.60563042 3.06795656 10.42289352 2 16 C-0.42130331 12.36804504 -0.21022785 10.61650652 -0.125 6.3125 C-0.09792969 4.54326172 -0.09792969 4.54326172 -0.0703125 2.73828125 C-0.04710938 1.83464844 -0.02390625 0.93101563 0 0 Z " fill="#247598" transform="translate(69,64)"/>
<path d="M0 0 C0.66 0.66 1.32 1.32 2 2 C1.6730244 4.61580479 1.17960932 6.64078137 0 9 C-0.66 9 -1.32 9 -2 9 C-2.33 6.69 -2.66 4.38 -3 2 C-2.01 1.34 -1.02 0.68 0 0 Z " fill="#132A43" transform="translate(349,114)"/>
<path d="M0 0 C0.66 0.66 1.32 1.32 2 2 C2.66 2.33 3.32 2.66 4 3 C4 3.99 4 4.98 4 6 C1.03 6 -1.94 6 -5 6 C-5 5.34 -5 4.68 -5 4 C-4.01 3.67 -3.02 3.34 -2 3 C-1.34 2.01 -0.68 1.02 0 0 Z " fill="#1B3450" transform="translate(280,88)"/>
<path d="M0 0 C-0.33 1.32 -0.66 2.64 -1 4 C-3.875 3.6875 -3.875 3.6875 -7 3 C-7.66 2.01 -8.32 1.02 -9 0 C-5.52176885 -1.15941038 -3.54104422 -0.70820884 0 0 Z " fill="#183255" transform="translate(430,83)"/>
<path d="M0 0 C2.97 0 5.94 0 9 0 C9 1.98 9 3.96 9 6 C7.68 5.34 6.36 4.68 5 4 C5 3.67 5 3.34 5 3 C2.03 2.505 2.03 2.505 -1 2 C-0.67 1.34 -0.34 0.68 0 0 Z " fill="#1E3250" transform="translate(276,82)"/>
<path d="M0 0 C0.99 0 1.98 0 3 0 C3 0.99 3 1.98 3 3 C3.99 3 4.98 3 6 3 C5.67 4.98 5.34 6.96 5 9 C4.34 8.01 3.68 7.02 3 6 C2.01 6.495 2.01 6.495 1 7 C-0.0625 5.1875 -0.0625 5.1875 -1 3 C-0.67 2.01 -0.34 1.02 0 0 Z " fill="#091D41" transform="translate(110,39)"/>
<path d="M0 0 C3.59391114 1.33488128 6.75490696 2.96022723 10 5 C8.1875 5.625 8.1875 5.625 6 6 C5.01 5.34 4.02 4.68 3 4 C0.35367713 4.3121764 0.35367713 4.3121764 -2 5 C-2 4.01 -2 3.02 -2 2 C-1.34 2 -0.68 2 0 2 C0 1.34 0 0.68 0 0 Z " fill="#6AB6D4" transform="translate(114,112)"/>
<path d="M0 0 C0.33 0 0.66 0 1 0 C1 4.29 1 8.58 1 13 C1.66 13.33 2.32 13.66 3 14 C1.68 14.33 0.36 14.66 -1 15 C-1.18451025 4.44191344 -1.18451025 4.44191344 0 0 Z " fill="#1F2F45" transform="translate(290,99)"/>
<path d="M0 0 C0.12375 0.639375 0.2475 1.27875 0.375 1.9375 C0.58125 2.618125 0.7875 3.29875 1 4 C1.66 4.33 2.32 4.66 3 5 C2.67 8.63 2.34 12.26 2 16 C1.67 16 1.34 16 1 16 C0.63818911 13.70952777 0.28576776 11.41757055 -0.0625 9.125 C-0.25972656 7.84882812 -0.45695313 6.57265625 -0.66015625 5.2578125 C-1 2 -1 2 0 0 Z " fill="#0A2343" transform="translate(246,93)"/>
<path d="M0 0 C1.65 0 3.3 0 5 0 C5.33 0.99 5.66 1.98 6 3 C0.83955235 4.512545 -2.65998179 5.33500455 -8 4 C-8 3.67 -8 3.34 -8 3 C-5.69 3 -3.38 3 -1 3 C-0.67 2.01 -0.34 1.02 0 0 Z " fill="#0F2338" transform="translate(317,80)"/>
<path d="M0 0 C2.475 0.495 2.475 0.495 5 1 C4.01 2.485 4.01 2.485 3 4 C2.34 4 1.68 4 1 4 C1 8.62 1 13.24 1 18 C0.67 18 0.34 18 0 18 C0 12.06 0 6.12 0 0 Z " fill="#1B2A3E" transform="translate(372,61)"/>
<path d="M0 0 C0.66 0.33 1.32 0.66 2 1 C1.38722388 3.96175123 0.74627478 5.38058783 -1 8 C-1 8.66 -1 9.32 -1 10 C-2.65 10.33 -4.3 10.66 -6 11 C-4.97088923 8.78345373 -3.91765775 6.89130823 -2.4375 4.9375 C-0.81311272 2.95818504 -0.81311272 2.95818504 0 0 Z " fill="#0A1931" transform="translate(425,117)"/>
<path d="M0 0 C0.33 0.66 0.66 1.32 1 2 C2.98 1.67 4.96 1.34 7 1 C7.33 1.66 7.66 2.32 8 3 C7.09507812 3.09087891 7.09507812 3.09087891 6.171875 3.18359375 C4.97304687 3.30927734 4.97304687 3.30927734 3.75 3.4375 C2.96109375 3.51871094 2.1721875 3.59992188 1.359375 3.68359375 C-0.82364639 3.97634993 -2.8773182 4.42064419 -5 5 C-4 2 -4 2 -1.9375 0.8125 C-1.298125 0.544375 -0.65875 0.27625 0 0 Z " fill="#112743" transform="translate(222,81)"/>
<path d="M0 0 C1.32 0 2.64 0 4 0 C4 1.65 4 3.3 4 5 C3.34 5 2.68 5 2 5 C2 5.66 2 6.32 2 7 C1.34 7 0.68 7 0 7 C0 7.66 0 8.32 0 9 C-0.66 9 -1.32 9 -2 9 C-1.67 7.68 -1.34 6.36 -1 5 C-0.34 5 0.32 5 1 5 C0.67 3.35 0.34 1.7 0 0 Z " fill="#206087" transform="translate(137,59)"/>
<path d="M0 0 C0.33 0 0.66 0 1 0 C1.33 2.97 1.66 5.94 2 9 C1.01 9.33 0.02 9.66 -1 10 C-1.66 8.02 -2.32 6.04 -3 4 C-2.01 3.67 -1.02 3.34 0 3 C0 2.01 0 1.02 0 0 Z " fill="#112636" transform="translate(263,121)"/>
<path d="M0 0 C0.66 0.66 1.32 1.32 2 2 C1.7578125 4.8203125 1.7578125 4.8203125 1.125 8.125 C0.92132813 9.22070312 0.71765625 10.31640625 0.5078125 11.4453125 C0.34023438 12.28835937 0.17265625 13.13140625 0 14 C-0.33 14 -0.66 14 -1 14 C-1.02694851 12.04174127 -1.04637218 10.08337774 -1.0625 8.125 C-1.07410156 7.03445312 -1.08570313 5.94390625 -1.09765625 4.8203125 C-1 2 -1 2 0 0 Z " fill="#0E2C44" transform="translate(409,107)"/>
<path d="M0 0 C0 0.66 0 1.32 0 2 C-0.61875 2.0825 -1.2375 2.165 -1.875 2.25 C-4.18437567 2.81258459 -4.18437567 2.81258459 -5.25 5.0625 C-5.4975 5.701875 -5.745 6.34125 -6 7 C-6.99 6.67 -7.98 6.34 -9 6 C-9 5.34 -9 4.68 -9 4 C-2.25 0 -2.25 0 0 0 Z " fill="#2671A3" transform="translate(100,75)"/>
<path d="M0 0 C0.66 0 1.32 0 2 0 C1.67 3.3 1.34 6.6 1 10 C0.34 10 -0.32 10 -1 10 C-1 1 -1 1 0 0 Z " fill="#1D2F42" transform="translate(114,32)"/>
<path d="M0 0 C0 0.66 0 1.32 0 2 C0.66 2 1.32 2 2 2 C1.67 2.99 1.34 3.98 1 5 C-0.32 5 -1.64 5 -3 5 C-3.33 3.68 -3.66 2.36 -4 1 C-2 0 -2 0 0 0 Z " fill="#1A66B6" transform="translate(116,161)"/>
<path d="M0 0 C0.99 0 1.98 0 3 0 C4.25 7.625 4.25 7.625 2 11 C1.67 8.36 1.34 5.72 1 3 C0.34 3 -0.32 3 -1 3 C-0.67 2.01 -0.34 1.02 0 0 Z " fill="#0C1A3B" transform="translate(82,161)"/>
<path d="M0 0 C0.99 0.33 1.98 0.66 3 1 C2.2884375 1.6496875 2.2884375 1.6496875 1.5625 2.3125 C-0.23686957 4.02309613 -0.23686957 4.02309613 -1 7 C-2.65 6.67 -4.3 6.34 -6 6 C-4 4 -2 2 0 0 Z " fill="#20374E" transform="translate(64,125)"/>
<path d="M0 0 C2 2 2 2 2 5 C1.34 5 0.68 5 0 5 C0 6.65 0 8.3 0 10 C-0.99 10 -1.98 10 -3 10 C-3 7.69 -3 5.38 -3 3 C-2.01 3 -1.02 3 0 3 C0 2.01 0 1.02 0 0 Z " fill="#186ABB" transform="translate(136,59)"/>
<path d="M0 0 C2.78489278 1.39244639 4.12301529 3.55991988 6 6 C5.01 6.66 4.02 7.32 3 8 C0.9375 5.6875 0.9375 5.6875 -1 3 C-0.67 2.01 -0.34 1.02 0 0 Z " fill="#1E77BE" transform="translate(98,145)"/>
<path d="M0 0 C3.31832766 0.98652984 4.76548627 1.68731503 6.875 4.5 C7.24625 5.325 7.6175 6.15 8 7 C7.67 7.66 7.34 8.32 7 9 C5 7.1875 5 7.1875 3 5 C3 4.01 3 3.02 3 2 C2.01 1.67 1.02 1.34 0 1 C0 0.67 0 0.34 0 0 Z " fill="#3071A0" transform="translate(103,132)"/>
<path d="M0 0 C0.7658028 2.77603517 1 5.10673188 1 8 C-0.65 8 -2.3 8 -4 8 C-3.40072174 4.64404172 -2.15377564 2.62198774 0 0 Z " fill="#6BB3DC" transform="translate(22,134)"/>
<path d="M0 0 C0.99 0 1.98 0 3 0 C3 0.66 3 1.32 3 2 C4.98 2 6.96 2 9 2 C8.67 2.66 8.34 3.32 8 4 C6.8553125 3.9690625 6.8553125 3.9690625 5.6875 3.9375 C2.89814214 3.87057159 2.89814214 3.87057159 0 5 C0 4.34 0 3.68 0 3 C-0.99 2.67 -1.98 2.34 -3 2 C-2.01 2 -1.02 2 0 2 C0 1.34 0 0.68 0 0 Z " fill="#0B2133" transform="translate(516,131)"/>
<path d="M0 0 C-0.99 1.485 -0.99 1.485 -2 3 C-4.5 3.125 -4.5 3.125 -7 3 C-7.99 3.495 -7.99 3.495 -9 4 C-9.33 3.01 -9.66 2.02 -10 1 C-3.375 -1.125 -3.375 -1.125 0 0 Z " fill="#122642" transform="translate(524,110)"/>
<path d="M0 0 C3.63 0 7.26 0 11 0 C11 0.66 11 1.32 11 2 C10.01 2 9.02 2 8 2 C7.67 2.66 7.34 3.32 7 4 C4.69 3.01 2.38 2.02 0 1 C0 0.67 0 0.34 0 0 Z " fill="#30527B" transform="translate(114,108)"/>
<path d="M0 0 C1.32 0.99 2.64 1.98 4 3 C1.75 4.125 1.75 4.125 -1 5 C-3.3125 4.125 -3.3125 4.125 -5 3 C-3.35 2.01 -1.7 1.02 0 0 Z " fill="#134173" transform="translate(126,105)"/>
<path d="M0 0 C0.99 0.33 1.98 0.66 3 1 C3.33 2.98 3.66 4.96 4 7 C3.01 7.33 2.02 7.66 1 8 C1 7.01 1 6.02 1 5 C0.34 5 -0.32 5 -1 5 C-0.67 3.35 -0.34 1.7 0 0 Z " fill="#112859" transform="translate(308,87)"/>
<path d="M0 0 C2.96175123 0.61277612 4.38058783 1.25372522 7 3 C6.01 3 5.02 3 4 3 C4 3.66 4 4.32 4 5 C2.68 4.67 1.36 4.34 0 4 C0 2.68 0 1.36 0 0 Z " fill="#162739" transform="translate(19,58)"/>
<path d="M0 0 C0.99 0.33 1.98 0.66 3 1 C1.62845496 3.95409701 0.01136276 6.44008376 -2 9 C-2 8.01 -2 7.02 -2 6 C-2.66 5.67 -3.32 5.34 -4 5 C-3.01 4.67 -2.02 4.34 -1 4 C-0.26676204 1.98491642 -0.26676204 1.98491642 0 0 Z " fill="#0F2144" transform="translate(96,48)"/>
<path d="M0 0 C0.33 0 0.66 0 1 0 C1.33 2.97 1.66 5.94 2 9 C0.68 9.33 -0.64 9.66 -2 10 C-1.46274105 6.62294375 -0.88935377 3.303314 0 0 Z " fill="#10293C" transform="translate(235,124)"/>
<path d="M0 0 C0.99 0.33 1.98 0.66 3 1 C2.43628586 4.26954202 1.50037734 5.82575883 -1 8 C-1.625 5.6875 -1.625 5.6875 -2 3 C-1.34 2.01 -0.68 1.02 0 0 Z " fill="#091933" transform="translate(434,125)"/>
<path d="M0 0 C0.33 0.99 0.66 1.98 1 3 C1.66 3 2.32 3 3 3 C2.67 3.99 2.34 4.98 2 6 C-0.0625 6.6875 -0.0625 6.6875 -2 7 C-2 6.34 -2 5.68 -2 5 C-2.66 4.67 -3.32 4.34 -4 4 C-2.68 2.68 -1.36 1.36 0 0 Z " fill="#0C2240" transform="translate(78,113)"/>
<path d="M0 0 C2.125 0.375 2.125 0.375 4 1 C3.34 1.556875 2.68 2.11375 2 2.6875 C-0.25492211 4.84062308 -0.25492211 4.84062308 -0.25 7.75 C-0.1675 8.4925 -0.085 9.235 0 10 C-0.99 10.495 -0.99 10.495 -2 11 C-2.05399736 9.54207116 -2.09279177 8.08357288 -2.125 6.625 C-2.15980469 5.40683594 -2.15980469 5.40683594 -2.1953125 4.1640625 C-2 2 -2 2 0 0 Z " fill="#66B9CB" transform="translate(92,105)"/>
<path d="M0 0 C-0.33 0.99 -0.66 1.98 -1 3 C-4.63 3 -8.26 3 -12 3 C-9.72692031 0.72692031 -9.07614168 0.6803523 -6 0.375 C-5.29875 0.30023438 -4.5975 0.22546875 -3.875 0.1484375 C-2 0 -2 0 0 0 Z " fill="#182646" transform="translate(361,61)"/>
<path d="M0 0 C0.66 0.33 1.32 0.66 2 1 C2.59355614 3.64860427 2.74209269 6.29197322 3 9 C0.5 6.6875 0.5 6.6875 -2 4 C-2 3.01 -2 2.02 -2 1 C-1.34 0.67 -0.68 0.34 0 0 Z " fill="#0E2738" transform="translate(493,121)"/>
<path d="M0 0 C2 3 2 3 1.625 5.6875 C1.41875 6.450625 1.2125 7.21375 1 8 C0.01 8 -0.98 8 -2 8 C-1.125 1.125 -1.125 1.125 0 0 Z " fill="#101D34" transform="translate(291,113)"/>
<path d="M0 0 C1.98 0 3.96 0 6 0 C6 0.66 6 1.32 6 2 C4.02 2.99 2.04 3.98 0 5 C-0.66 4.34 -1.32 3.68 -2 3 C-1.34 3 -0.68 3 0 3 C0 2.01 0 1.02 0 0 Z " fill="#0F1D35" transform="translate(494,109)"/>
<path d="M0 0 C0.99 0.33 1.98 0.66 3 1 C3 1.66 3 2.32 3 3 C3.66 3.66 4.32 4.32 5 5 C4.34 5 3.68 5 3 5 C3 6.98 3 8.96 3 11 C2.67 11 2.34 11 2 11 C2 8.69 2 6.38 2 4 C1.01 3.67 0.02 3.34 -1 3 C-0.67 2.01 -0.34 1.02 0 0 Z " fill="#0D1F33" transform="translate(211,96)"/>
<path d="M0 0 C2.64 0 5.28 0 8 0 C8.33 2.31 8.66 4.62 9 7 C8.34 7 7.68 7 7 7 C6.6596875 6.0409375 6.6596875 6.0409375 6.3125 5.0625 C5.14749104 2.72806339 5.14749104 2.72806339 2.375 2.25 C1.59125 2.1675 0.8075 2.085 0 2 C0 1.34 0 0.68 0 0 Z " fill="#1C3656" transform="translate(204,84)"/>
<path d="M0 0 C2.96175123 0.61277612 4.38058783 1.25372522 7 3 C3.33694766 3.74926071 0.57644848 4.2380014 -3 3 C-2.01 2.67 -1.02 2.34 0 2 C0 1.34 0 0.68 0 0 Z " fill="#162539" transform="translate(315,133)"/>
<path d="M0 0 C0.66 1.32 1.32 2.64 2 4 C1.01 4.33 0.02 4.66 -1 5 C-1.33 5.99 -1.66 6.98 -2 8 C-2.66 7.67 -3.32 7.34 -4 7 C-2.79618552 4.50638429 -1.54571278 2.31856917 0 0 Z " fill="#72C0DE" transform="translate(32,121)"/>
<path d="M0 0 C0.66 0.33 1.32 0.66 2 1 C2 4 2 4 0 6.1875 C-0.66 6.785625 -1.32 7.38375 -2 8 C-2.66 7.67 -3.32 7.34 -4 7 C-3.67 5.35 -3.34 3.7 -3 2 C-2.01 2 -1.02 2 0 2 C0 1.34 0 0.68 0 0 Z " fill="#0A1B32" transform="translate(511,110)"/>
<path d="M0 0 C2.4375 0.625 2.4375 0.625 5 2 C5.8125 5.125 5.8125 5.125 6 8 C5.01 8.495 5.01 8.495 4 9 C3.67 7.02 3.34 5.04 3 3 C2.01 2.67 1.02 2.34 0 2 C0 1.34 0 0.68 0 0 Z " fill="#70B7D0" transform="translate(64,104)"/>
<path d="M0 0 C1.65 0 3.3 0 5 0 C5.66 1.32 6.32 2.64 7 4 C4.69 3.67 2.38 3.34 0 3 C0 2.01 0 1.02 0 0 Z " fill="#13223F" transform="translate(501,96)"/>
<path d="M0 0 C1.65 0 3.3 0 5 0 C3.515 2.475 3.515 2.475 2 5 C1.01 4.67 0.02 4.34 -1 4 C-0.67 2.68 -0.34 1.36 0 0 Z " fill="#0E2139" transform="translate(297,86)"/>
<path d="M0 0 C0.66 0.33 1.32 0.66 2 1 C1.67 2.98 1.34 4.96 1 7 C0.01 7 -0.98 7 -2 7 C-2.33 5.68 -2.66 4.36 -3 3 C-2.34 3 -1.68 3 -1 3 C-0.67 2.01 -0.34 1.02 0 0 Z " fill="#0F2239" transform="translate(262,76)"/>
<path d="M0 0 C1.32 0.66 2.64 1.32 4 2 C3.2884375 2.6496875 3.2884375 2.6496875 2.5625 3.3125 C0.76313043 5.02309613 0.76313043 5.02309613 0 8 C-2 7 -2 7 -3 5 C-2.34 5 -1.68 5 -1 5 C-0.67 3.35 -0.34 1.7 0 0 Z " fill="#186ABC" transform="translate(87,76)"/>
<path d="M0 0 C-0.33 0.99 -0.66 1.98 -1 3 C-2.98 3.33 -4.96 3.66 -7 4 C-6.625 2.0625 -6.625 2.0625 -6 0 C-3.50907189 -1.24546405 -2.58919267 -0.7767578 0 0 Z " fill="#0C2041" transform="translate(50,66)"/>
<path d="M0 0 C0.66 0 1.32 0 2 0 C3.60725635 3.21451269 3.05748185 6.43612536 3 10 C1 7 1 7 1 3 C0.34 3 -0.32 3 -1 3 C-0.67 2.01 -0.34 1.02 0 0 Z " fill="#254368" transform="translate(44,40)"/>
<path d="M0 0 C0.33 1.32 0.66 2.64 1 4 C1.66 4 2.32 4 3 4 C2.67 5.32 2.34 6.64 2 8 C1.01 8 0.02 8 -1 8 C-0.67 5.36 -0.34 2.72 0 0 Z " fill="#202A3B" transform="translate(44,161)"/>
<path d="M0 0 C3 4 3 4 3 6 C2.34 6 1.68 6 1 6 C1 8.64 1 11.28 1 14 C0.67 14 0.34 14 0 14 C0 9.38 0 4.76 0 0 Z " fill="#0D2440" transform="translate(211,106)"/>
<path d="M0 0 C0 0.99 0 1.98 0 3 C-0.99 3.495 -0.99 3.495 -2 4 C-2 5.32 -2 6.64 -2 8 C-3.32 7.67 -4.64 7.34 -6 7 C-6 6.01 -6 5.02 -6 4 C-3 1.8125 -3 1.8125 0 0 Z " fill="#2B4B71" transform="translate(108,95)"/>
<path d="M0 0 C0.99 0 1.98 0 3 0 C3 2.64 3 5.28 3 8 C2.34 8 1.68 8 1 8 C0 2.25 0 2.25 0 0 Z " fill="#18293B" transform="translate(561,65)"/>
<path d="M0 0 C0.66 0 1.32 0 2 0 C2.33 1.65 2.66 3.3 3 5 C1.35 5.33 -0.3 5.66 -2 6 C-1.125 1.125 -1.125 1.125 0 0 Z " fill="#3474A6" transform="translate(79,22)"/>
<path d="M0 0 C2.79872437 2.52788007 4.45773019 4.20411134 5 8 C4.34 8 3.68 8 3 8 C2.896875 7.360625 2.79375 6.72125 2.6875 6.0625 C2.460625 5.381875 2.23375 4.70125 2 4 C1.01 3.67 0.02 3.34 -1 3 C-0.67 2.01 -0.34 1.02 0 0 Z " fill="#177498" transform="translate(109,140)"/>
<path d="M0 0 C2.26609984 4.53219967 1.92735976 6.17772925 1 11 C0.01 10.34 -0.98 9.68 -2 9 C-1.34 6.03 -0.68 3.06 0 0 Z " fill="#13213D" transform="translate(212,125)"/>
<path d="M0 0 C1.65 1.65 3.3 3.3 5 5 C2.03 4.505 2.03 4.505 -1 4 C-1 1 -1 1 0 0 Z " fill="#102033" transform="translate(458,120)"/>
<path d="M0 0 C0.94875 0.350625 1.8975 0.70125 2.875 1.0625 C2.545 1.7225 2.215 2.3825 1.875 3.0625 C-0.435 2.7325 -2.745 2.4025 -5.125 2.0625 C-5.125 1.4025 -5.125 0.7425 -5.125 0.0625 C-3.125 -0.9375 -3.125 -0.9375 0 0 Z " fill="#1B2E45" transform="translate(480.125,119.9375)"/>
<path d="M0 0 C2.97 0.495 2.97 0.495 6 1 C6 1.66 6 2.32 6 3 C4.8553125 3.2165625 4.8553125 3.2165625 3.6875 3.4375 C0.91827092 3.9632594 0.91827092 3.9632594 -2 5 C-1.34 3.35 -0.68 1.7 0 0 Z " fill="#13243D" transform="translate(327,117)"/>
<path d="M0 0 C0.33 0 0.66 0 1 0 C1 2.31 1 4.62 1 7 C0.01 7.33 -0.98 7.66 -2 8 C-2 6.02 -2 4.04 -2 2 C-1.34 2 -0.68 2 0 2 C0 1.34 0 0.68 0 0 Z " fill="#0B172C" transform="translate(340,106)"/>
<path d="M0 0 C0.33 0.66 0.66 1.32 1 2 C1.66 2.33 2.32 2.66 3 3 C2.01 3.33 1.02 3.66 0 4 C0 6.97 0 9.94 0 13 C-0.33 13 -0.66 13 -1 13 C-1.02696365 11.20841511 -1.04637917 9.41671527 -1.0625 7.625 C-1.07410156 6.62726563 -1.08570313 5.62953125 -1.09765625 4.6015625 C-1 2 -1 2 0 0 Z " fill="#0C2747" transform="translate(292,99)"/>
<path d="M0 0 C2.97 0 5.94 0 9 0 C6 2 6 2 4 2 C3.34 3.32 2.68 4.64 2 6 C1.34 4.02 0.68 2.04 0 0 Z " fill="#1E3245" transform="translate(251,82)"/>
<path d="M0 0 C2.19636905 2.19636905 3.58511552 4.23760649 5 7 C4.67 7.99 4.34 8.98 4 10 C3.34 9.67 2.68 9.34 2 9 C1.3671875 6.93359375 1.3671875 6.93359375 0.875 4.4375 C0.70742187 3.61121094 0.53984375 2.78492188 0.3671875 1.93359375 C0.24601562 1.29550781 0.12484375 0.65742188 0 0 Z " fill="#222E3C" transform="translate(76,169)"/>
<path d="M0 0 C3.60654039 2.40436026 3.85452932 3.94679607 5 8 C3.68 8 2.36 8 1 8 C1.33 6.68 1.66 5.36 2 4 C1.34 3.67 0.68 3.34 0 3 C0 2.01 0 1.02 0 0 Z " fill="#6BC0E0" transform="translate(127,122)"/>
<path d="M0 0 C0.33 1.32 0.66 2.64 1 4 C0.01 4.495 0.01 4.495 -1 5 C-1.65772428 8.02934491 -1.65772428 8.02934491 -2 11 C-2.33 11 -2.66 11 -3 11 C-3 8.36 -3 5.72 -3 3 C-2.34 3 -1.68 3 -1 3 C-0.67 2.01 -0.34 1.02 0 0 Z " fill="#081863" transform="translate(350,120)"/>
<path d="M0 0 C1.61949011 2.57213134 2.04408751 3.67669159 1.625 6.75 C1.41875 7.4925 1.2125 8.235 1 9 C-0.32 8.67 -1.64 8.34 -3 8 C-2.34 7.34 -1.68 6.68 -1 6 C-0.60235737 4.01178687 -0.26224651 2.01055661 0 0 Z " fill="#0F253A" transform="translate(525,112)"/>
<path d="M0 0 C1.32 0.66 2.64 1.32 4 2 C4 2.66 4 3.32 4 4 C2.35 4.33 0.7 4.66 -1 5 C-0.67 3.35 -0.34 1.7 0 0 Z " fill="#1F70A4" transform="translate(103,91)"/>
<path d="M0 0 C2.31 0.33 4.62 0.66 7 1 C6.67 1.99 6.34 2.98 6 4 C4.35 4.33 2.7 4.66 1 5 C0.67 3.35 0.34 1.7 0 0 Z " fill="#1F3253" transform="translate(453,82)"/>
<path d="M0 0 C3.73639216 1.24546405 4.18756513 2.63404953 6 6 C3.13275314 5.42655063 2.1385485 5.1385485 0 3 C0 2.01 0 1.02 0 0 Z " fill="#14263E" transform="translate(548,70)"/>
<path d="M0 0 C0.33 0 0.66 0 1 0 C1 1.65 1 3.3 1 5 C0.67 5 0.34 5 0 5 C0 3.35 0 1.7 0 0 Z " fill="#000000" transform="translate(362,69)"/>
<path d="" fill="#007FFF" transform="translate(0,0)"/>
<path d="" fill="#002A2A" transform="translate(0,0)"/>
<path d="" fill="#000000" transform="translate(0,0)"/>
<path d="M0 0 C2 1 2 1 2 1 Z " fill="#000000" transform="translate(223,94)"/>
<path d="M0 0 C2 1 2 1 2 1 Z " fill="#000000" transform="translate(70,81)"/>
<path d="" fill="#000000" transform="translate(0,0)"/>
<path d="M0 0 C2 1 2 1 2 1 Z " fill="#000000" transform="translate(378,60)"/>
<path d="M0 0 C2 1 2 1 2 1 Z " fill="#00002A" transform="translate(23,58)"/>
<path d="" fill="#000000" transform="translate(0,0)"/>
<path d="" fill="#000000" transform="translate(0,0)"/>
<path d="" fill="#000000" transform="translate(0,0)"/>
<path d="" fill="#000000" transform="translate(0,0)"/>
<path d="" fill="#000000" transform="translate(0,0)"/>
<path d="" fill="#000000" transform="translate(0,0)"/>
<path d="" fill="#000000" transform="translate(0,0)"/>
<path d="" fill="#005555" transform="translate(0,0)"/>
<path d="" fill="#000000" transform="translate(0,0)"/>
<path d="" fill="#000000" transform="translate(0,0)"/>
<path d="" fill="#000000" transform="translate(0,0)"/>
<path d="" fill="#000000" transform="translate(0,0)"/>
<path d="" fill="#000000" transform="translate(0,0)"/>
<path d="" fill="#000000" transform="translate(0,0)"/>
<path d="" fill="#000000" transform="translate(0,0)"/>
<path d="" fill="#004040" transform="translate(0,0)"/>
<path d="" fill="#000000" transform="translate(0,0)"/>
<path d="" fill="#000000" transform="translate(0,0)"/>
<path d="" fill="#000000" transform="translate(0,0)"/>
<path d="" fill="#000000" transform="translate(0,0)"/>
<path d="" fill="#000000" transform="translate(0,0)"/>
<path d="" fill="#000000" transform="translate(0,0)"/>
<path d="" fill="#000000" transform="translate(0,0)"/>
<path d="" fill="#000000" transform="translate(0,0)"/>
<path d="" fill="#000000" transform="translate(0,0)"/>
<path d="" fill="#005555" transform="translate(0,0)"/>
<path d="" fill="#000000" transform="translate(0,0)"/>
<path d="" fill="#000000" transform="translate(0,0)"/>
<path d="" fill="#000000" transform="translate(0,0)"/>
<path d="" fill="#000000" transform="translate(0,0)"/>
<path d="" fill="#000000" transform="translate(0,0)"/>
<path d="" fill="#000000" transform="translate(0,0)"/>
<path d="" fill="#000000" transform="translate(0,0)"/>
<path d="" fill="#000055" transform="translate(0,0)"/>
<path d="" fill="#000000" transform="translate(0,0)"/>
<path d="" fill="#000000" transform="translate(0,0)"/>
<path d="" fill="#000000" transform="translate(0,0)"/>
<path d="" fill="#0000FF" transform="translate(0,0)"/>
<path d="" fill="#000000" transform="translate(0,0)"/>
<path d="" fill="#005555" transform="translate(0,0)"/>
<path d="" fill="#000000" transform="translate(0,0)"/>
<path d="" fill="#005555" transform="translate(0,0)"/>
<path d="" fill="#000000" transform="translate(0,0)"/>
<path d="" fill="#000000" transform="translate(0,0)"/>
<path d="" fill="#000000" transform="translate(0,0)"/>
<path d="" fill="#000000" transform="translate(0,0)"/>
<path d="" fill="#000000" transform="translate(0,0)"/>
<path d="" fill="#000000" transform="translate(0,0)"/>
<path d="" fill="#000000" transform="translate(0,0)"/>
<path d="" fill="#000000" transform="translate(0,0)"/>
<path d="" fill="#000000" transform="translate(0,0)"/>
<path d="" fill="#000000" transform="translate(0,0)"/>
</svg>
