<?xml version="1.0" encoding="UTF-8"?>
<svg version="1.1" xmlns="http://www.w3.org/2000/svg" width="691" height="361">
<path d="M0 0 C0.99261337 0.00222061 1.98522675 0.00444122 3.00791931 0.00672913 C4.12900589 0.00680466 5.25009247 0.00688019 6.40515137 0.00695801 C8.2348069 0.01469994 8.2348069 0.01469994 10.10142517 0.02259827 C11.96377052 0.02472069 11.96377052 0.02472069 13.86373901 0.02688599 C17.16982383 0.03154861 20.47584039 0.04053955 23.78190613 0.05158997 C27.15338042 0.06180625 30.52486175 0.06638407 33.89634705 0.07142639 C40.51550667 0.08248056 47.13463385 0.09923715 53.75376892 0.12025452 C52.76893813 6.41688541 49.09609527 9.00164922 44.37876892 12.93275452 C41.02330493 15.76301545 38.22047713 18.90382686 35.37486267 22.23744202 C32.00606072 26.15012284 28.36572594 29.4738269 24.31616211 32.66358948 C22.66210527 34.10190629 22.66210527 34.10190629 21.37973022 36.10523987 C18.95397701 39.55825037 17.11539637 41.78078499 12.92762756 42.82484436 C9.45951337 43.04545146 6.07459243 43.01995736 2.60142517 42.90150452 C1.34615524 42.89018494 0.09088531 42.87886536 -1.2024231 42.86720276 C-4.52017155 42.83011953 -7.8334156 42.75844333 -11.1499176 42.66957092 C-14.54165466 42.58732725 -17.93385975 42.55111044 -21.3263092 42.51087952 C-27.96751603 42.42284415 -34.60661385 42.2891058 -41.24623108 42.12025452 C-40.52512508 38.83996237 -39.74170666 37.22589835 -37.30873108 34.87025452 C-36.52175842 34.08908264 -36.52175842 34.08908264 -35.71888733 33.29212952 C-34.24623108 32.12025452 -34.24623108 32.12025452 -32.24623108 32.12025452 C-32.01935608 31.56337952 -31.79248108 31.00650452 -31.55873108 30.43275452 C-29.87073072 27.45865864 -27.77946591 25.40016587 -25.24623108 23.12025452 C-24.58623108 23.12025452 -23.92623108 23.12025452 -23.24623108 23.12025452 C-23.03998108 22.56337952 -22.83373108 22.00650452 -22.62123108 21.43275452 C-21.10239929 18.8783556 -19.28267115 17.43805065 -16.96498108 15.62025452 C-14.28469712 13.28109761 -12.10706603 10.54086186 -9.85951233 7.79212952 C-8.24623108 6.12025452 -8.24623108 6.12025452 -5.24623108 5.12025452 C-4.09614798 3.15352536 -4.09614798 3.15352536 -3.24623108 1.12025452 C-2.24623108 0.12025452 -2.24623108 0.12025452 0 0 Z " fill="#40A6E5" transform="translate(418.24623107910156,129.87974548339844)"/>
<path d="M0 0 C1.08089401 0.00007553 2.16178802 0.00015106 3.2754364 0.00022888 C4.44113663 0.00539017 5.60683685 0.01055145 6.80786133 0.01586914 C8.00220291 0.01728409 9.19654449 0.01869904 10.42707825 0.02015686 C14.24804166 0.0257619 18.06894683 0.03831528 21.88989258 0.05102539 C24.47778236 0.05603974 27.06567305 0.06060276 29.65356445 0.06469727 C36.00319375 0.07573296 42.35278901 0.09247603 48.70239258 0.11352539 C47.41291731 6.21274342 43.04853839 9.87338313 38.70239258 14.11352539 C37.87739258 14.93852539 37.05239258 15.76352539 36.20239258 16.61352539 C34.96489258 17.85102539 34.96489258 17.85102539 33.70239258 19.11352539 C32.89801758 19.93852539 32.09364258 20.76352539 31.26489258 21.61352539 C29.40049881 23.43244614 27.60659799 25.01020259 25.57739258 26.61352539 C22.65622573 28.87843223 22.65622573 28.87843223 21.26489258 31.61352539 C19.38436957 34.6223622 17.29965331 35.95522786 14.32348633 37.80493164 C12.27770213 39.27112952 12.27770213 39.27112952 10.70239258 43.11352539 C-8.10760742 42.78352539 -26.91760742 42.45352539 -46.29760742 42.11352539 C-45.96760742 40.79352539 -45.63760742 39.47352539 -45.29760742 38.11352539 C-43.97292996 37.42982089 -42.6389711 36.76388354 -41.29760742 36.11352539 C-40.61274017 34.7894487 -39.9489054 33.45443298 -39.29760742 32.11352539 C-37.67536203 30.40359105 -36.00347317 28.74004855 -34.29760742 27.11352539 C-33.47260742 26.26790039 -32.64760742 25.42227539 -31.79760742 24.55102539 C-29.29760742 22.11352539 -29.29760742 22.11352539 -26.92260742 20.30102539 C-23.86330391 17.7516058 -21.46591806 14.89343361 -18.94604492 11.82055664 C-17.29760742 10.11352539 -17.29760742 10.11352539 -14.29760742 9.11352539 C-13.61274017 7.7894487 -12.9489054 6.45443298 -12.29760742 5.11352539 C-8.45599991 0.77622659 -5.68943143 -0.01326208 0 0 Z " fill="#121B52" transform="translate(265.297607421875,187.886474609375)"/>
<path d="M0 0 C34.38525382 -2.23710652 34.38525382 -2.23710652 44.5012207 5.53912354 C48.81030589 9.59150203 52.51200839 14.00903832 55.86132812 18.88214111 C57.85187024 21.44140955 60.05387557 23.20326964 62.63012695 25.15631104 C67.63012695 30.31680486 67.63012695 30.31680486 67.63012695 33.15631104 C68.18700195 33.38318604 68.74387695 33.61006104 69.31762695 33.84381104 C72.31053895 35.54249081 74.36539933 37.57703791 76.63012695 40.15631104 C76.63012695 41.14631104 76.63012695 42.13631104 76.63012695 43.15631104 C68.74653103 43.25772847 60.86310333 43.32778434 52.97900391 43.3760376 C50.29684872 43.39389428 47.61507235 43.42172539 44.93310547 43.45806885 C41.07809629 43.50658645 37.22366697 43.52928098 33.3684082 43.54693604 C32.16928299 43.56758118 30.97015778 43.58822632 29.73469543 43.60949707 C21.39195285 43.61174598 21.39195285 43.61174598 17.44921875 41.25469971 C16.84891846 40.56223145 16.24861816 39.86976318 15.63012695 39.15631104 C15.02168945 38.5079126 14.41325195 37.85951416 13.78637695 37.19146729 C13.23981445 36.54049072 12.69325195 35.88951416 12.13012695 35.21881104 C9.42005712 32.05119695 6.61909998 29.06662688 3.63012695 26.15631104 C-1.36987305 21.15631104 -1.36987305 21.15631104 -3.0300293 19.46099854 C-5.77542944 16.67336147 -8.50477312 13.98264128 -11.55737305 11.53131104 C-14.26752424 9.24273892 -16.36894234 7.08074822 -18.36987305 4.15631104 C-18.36987305 3.16631104 -18.36987305 2.17631104 -18.36987305 1.15631104 C-13.84326021 0.84946876 -9.31583828 0.56581673 -4.78662109 0.30090332 C-3.19078483 0.20542559 -1.59522373 0.10521706 0 0 Z " fill="#060733" transform="translate(237.369873046875,128.84368896484375)"/>
<path d="M0 0 C8.00060076 -0.07489042 15.99930539 -0.05277637 24 0 C25.02332428 0.00422974 25.02332428 0.00422974 26.06732178 0.00854492 C30.39455351 0.02690115 34.72009227 0.0732586 39.04663086 0.15359497 C40.46872094 0.17611667 41.89097355 0.19007531 43.31323242 0.19528198 C45.32755323 0.20451793 47.34162573 0.24813665 49.35546875 0.29296875 C50.51715576 0.3086792 51.67884277 0.32438965 52.87573242 0.34057617 C56.90102443 1.1901748 58.36448495 2.92080537 61 6 C61.63164062 6.63164062 62.26328125 7.26328125 62.9140625 7.9140625 C64.609375 9.609375 66.3046875 11.3046875 68 13 C68.56460938 13.52335938 69.12921875 14.04671875 69.7109375 14.5859375 C71 16 71 16 71 18 C72.0828125 18.309375 72.0828125 18.309375 73.1875 18.625 C76.97218384 20.47528988 78.52258653 22.60240438 81 26 C81 26.66 81 27.32 81 28 C81.72574219 28.226875 82.45148438 28.45375 83.19921875 28.6875 C86.58599264 30.27460743 88.35476654 32.19581986 90.8125 35 C91.99779297 36.3303125 91.99779297 36.3303125 93.20703125 37.6875 C95 40 95 40 95 42 C87.55908468 42.18589511 80.11867494 42.32777113 72.67590237 42.41449738 C69.2192134 42.45613765 65.76412013 42.51254464 62.30834961 42.60351562 C58.32946321 42.70759391 54.35120793 42.74598235 50.37109375 42.78125 C48.52226845 42.84318542 48.52226845 42.84318542 46.63609314 42.90637207 C38.20554848 42.91076102 38.20554848 42.91076102 34.74368286 40.29541016 C32.9769805 38.27988017 31.50454346 36.21415847 30 34 C28.8172207 32.74622439 27.61191676 31.51289871 26.375 30.3125 C25.84648437 29.79300781 25.31796875 29.27351563 24.7734375 28.73828125 C24.18820312 28.16464844 23.60296875 27.59101563 23 27 C21.33176847 25.33487504 19.6655407 23.66781327 18 22 C16.45190958 20.45173626 14.90372254 18.90356912 13.35546875 17.35546875 C8.5703125 12.5703125 3.78515625 7.78515625 -1 3 C-0.67 2.01 -0.34 1.02 0 0 Z " fill="#2F5DAA" transform="translate(378,188)"/>
<path d="M0 0 C0.34651435 7.56070571 0.62868525 15.12187429 0.86669922 22.68676758 C0.95515425 25.2586057 1.05821033 27.8299855 1.17626953 30.40063477 C1.34367684 34.10148097 1.45808896 37.80081252 1.5625 41.50390625 C1.62566406 42.64896133 1.68882812 43.79401642 1.75390625 44.97377014 C1.90434394 52.85555176 1.90434394 52.85555176 -0.78564453 56.25973511 C-2.78236203 57.99100932 -4.84240026 59.4805557 -7 61 C-7.495 61.99 -7.495 61.99 -8 63 C-8.66 63 -9.32 63 -10 63 C-10.37511719 63.88365234 -10.37511719 63.88365234 -10.7578125 64.78515625 C-12.16438247 67.29309705 -13.65554334 68.62424578 -15.875 70.4375 C-19.00432208 73.0762797 -21.47122017 75.77362574 -24 79 C-28.54054054 83 -28.54054054 83 -31 83 C-31.061875 83.5775 -31.12375 84.155 -31.1875 84.75 C-32.3273255 87.90643986 -34.33594629 89.03367464 -37 91 C-37.53625 91.5775 -38.0725 92.155 -38.625 92.75 C-40 94 -40 94 -43 94 C-43.25451777 86.47510416 -43.42906483 78.95132524 -43.54931641 71.4230957 C-43.59946452 68.86505664 -43.66760358 66.30730222 -43.75439453 63.75024414 C-43.87636164 60.06325019 -43.93254987 56.38005616 -43.9765625 52.69140625 C-44.02817535 51.55667374 -44.07978821 50.42194122 -44.13296509 49.25282288 C-44.13630368 44.47710219 -44.03294259 41.28665831 -40.97747803 37.48069763 C-38.40903982 35.17622129 -35.74438415 33.09003708 -33 31 C-31.65858552 29.73689884 -30.33989385 28.44900524 -29.05078125 27.13256836 C-28.43734863 26.51260483 -27.82391602 25.8926413 -27.19189453 25.25389099 C-26.57169434 24.6222554 -25.95149414 23.99061981 -25.3125 23.33984375 C-23.94153022 21.95625736 -22.57043305 20.57279718 -21.19921875 19.18945312 C-19.07967306 17.04488124 -16.96179677 14.8987035 -14.84619141 12.75024414 C-12.77675489 10.65081237 -10.70130751 8.55747712 -8.625 6.46484375 C-7.98860596 5.81499008 -7.35221191 5.16513641 -6.6965332 4.49559021 C-2.22661852 0 -2.22661852 0 0 0 Z " fill="#070833" transform="translate(327,197)"/>
<path d="M0 0 C3 0 3 0 5.375 2.125 C7.07843162 3.9906632 8.72909647 5.90644426 10.3125 7.875 C12.92226174 11.0775152 15.94980533 13.66402201 19.08203125 16.34375 C23.01641534 19.74126294 26.3428829 23.42000461 29.6015625 27.45703125 C31.68671774 29.75769136 34.09058991 31.61754093 36.546875 33.5078125 C38.27067116 35.27794727 38.60736264 36.59251304 39 39 C40.65 39.33 42.3 39.66 44 40 C44.20638953 77.86454008 44.20638953 77.86454008 43 94 C40 94 40 94 38.3515625 92.42578125 C37.78179687 91.72839844 37.21203125 91.03101563 36.625 90.3125 C33.88298435 87.04051494 31.06166079 83.98109077 28 81 C27.175 80.154375 26.35 79.30875 25.5 78.4375 C23.07236296 75.99103107 23.07236296 75.99103107 20.5 74 C17.7899935 71.8319948 15.42278499 69.48335462 13 67 C12.175 66.175 11.35 65.35 10.5 64.5 C9.675 63.675 8.85 62.85 8 62 C7.13375 61.154375 6.2675 60.30875 5.375 59.4375 C1.51880106 55.47982214 -0.38104012 53.34561664 -0.34057617 47.68066406 C-0.34034958 46.61986633 -0.34012299 45.5590686 -0.33988953 44.46612549 C-0.32440567 43.32746033 -0.30892181 42.18879517 -0.29296875 41.015625 C-0.28872391 39.84489441 -0.28447906 38.67416382 -0.28010559 37.46795654 C-0.26331175 33.72840384 -0.22565704 29.98938985 -0.1875 26.25 C-0.17245413 23.71485153 -0.15876556 21.17969462 -0.14648438 18.64453125 C-0.11340585 12.42950367 -0.06319883 6.21479032 0 0 Z " fill="#314587" transform="translate(284,69)"/>
<path d="M0 0 C0.10144294 7.45634335 0.17148385 14.91250866 0.21972656 22.36938477 C0.23983841 24.90591075 0.26713161 27.4423904 0.30175781 29.97875977 C0.35029242 33.62527911 0.37297363 37.27118528 0.390625 40.91796875 C0.41127014 42.05147263 0.43191528 43.1849765 0.45318604 44.35282898 C0.45543541 52.25011355 0.45543541 52.25011355 -1.9152832 56.15356445 C-2.60323975 56.76288818 -3.29119629 57.37221191 -4 58 C-4.57621094 58.53625 -5.15242188 59.0725 -5.74609375 59.625 C-6.30425781 60.07875 -6.86242187 60.5325 -7.4375 61 C-12.1994513 64.98674993 -16.35718526 69.3786423 -20.5 74 C-25.45314254 79.52434514 -30.56542532 84.56389673 -36.23046875 89.3515625 C-38.21611689 91.07423737 -38.21611689 91.07423737 -40 94 C-40.99 94 -41.98 94 -43 94 C-43.06058594 93.03578125 -43.12117188 92.0715625 -43.18359375 91.078125 C-43.30927734 89.18320313 -43.30927734 89.18320313 -43.4375 87.25 C-43.51871094 85.99703125 -43.59992188 84.7440625 -43.68359375 83.453125 C-43.89730598 80.15168952 -43.89730598 80.15168952 -44.59765625 77.609375 C-44.73042969 77.07828125 -44.86320312 76.5471875 -45 76 C-44.505 75.505 -44.505 75.505 -44 75 C-43.84011509 72.48119483 -43.74065775 69.98657734 -43.68359375 67.46484375 C-43.66281265 66.71159317 -43.64203156 65.95834259 -43.62062073 65.18226624 C-43.55504575 62.7674401 -43.49620379 60.35250202 -43.4375 57.9375 C-43.3943223 56.30402471 -43.35070827 54.6705609 -43.30664062 53.03710938 C-43.19935638 49.02485536 -43.09811179 45.01248836 -43 41 C-42.38125 40.7525 -41.7625 40.505 -41.125 40.25 C-38.57303488 38.74884404 -38.23206578 37.63695253 -37 35 C-35.73048423 33.57035271 -34.40490598 32.18955365 -33.04296875 30.84765625 C-32.25986328 30.07099609 -31.47675781 29.29433594 -30.66992188 28.49414062 C-29.44112305 27.29047852 -29.44112305 27.29047852 -28.1875 26.0625 C-27.37990234 25.26392578 -26.57230469 24.46535156 -25.74023438 23.64257812 C-24.18123463 22.10145389 -22.62027874 20.56230531 -21.05712891 19.02539062 C-19.39628052 17.39016653 -17.74295759 15.74847668 -16.09765625 14.09765625 C-14.50246812 12.50246812 -12.88184431 10.93266957 -11.25 9.375 C-8.80995326 7.13466888 -8.80995326 7.13466888 -8 4 C-2.62857143 0 -2.62857143 0 0 0 Z " fill="#040532" transform="translate(407,69)"/>
<path d="M0 0 C3.45166018 0.74491339 4.60303342 1.38746925 6.72265625 4.23828125 C9.6890908 7.82889482 12.88064575 10.53671798 16.57577515 13.31796265 C41.88449001 32.52933985 41.88449001 32.52933985 44.48486328 47.68212891 C46.16580078 63.03512039 44.83217629 78.71212995 43 94 C42.01 94 41.02 94 40 94 C40 93.34 40 92.68 40 92 C39.1646875 91.690625 39.1646875 91.690625 38.3125 91.375 C35.7545652 89.85406579 34.31278817 88.02467021 32.484375 85.7109375 C30.20617959 83.08501753 27.56524878 80.92169424 24.9296875 78.6640625 C21.1061148 75.36681155 18.24793598 72.49587195 16 68 C15.01 67.67 14.02 67.34 13 67 C13 66.34 13 65.68 13 65 C12.34 65 11.68 65 11 65 C11 64.34 11 63.68 11 63 C10.4225 62.773125 9.845 62.54625 9.25 62.3125 C6.43086319 60.66800353 4.98745131 58.5644533 3 56 C2.01 55.34 1.02 54.68 0 54 C-0.36076355 51.70944214 -0.36076355 51.70944214 -0.34057617 48.81591797 C-0.34034958 47.73494843 -0.34012299 46.65397888 -0.33988953 45.54025269 C-0.32440567 44.36939117 -0.30892181 43.19852966 -0.29296875 41.9921875 C-0.28872391 40.79643097 -0.28447906 39.60067444 -0.28010559 38.36868286 C-0.26326902 34.53722929 -0.22560684 30.70629547 -0.1875 26.875 C-0.17245964 24.28255966 -0.15877011 21.69011111 -0.14648438 19.09765625 C-0.11334918 12.73159252 -0.0631003 6.36583338 0 0 Z " fill="#40A7E6" transform="translate(364,197)"/>
<path d="M0 0 C8.60235714 3.7425294 16.59063167 11.72865951 21 19.87011719 C22.67694687 25.50175511 22.71882194 31.28906769 22.625 37.12011719 C22.62157593 37.84593994 22.61815186 38.5717627 22.61462402 39.31958008 C22.41313019 52.29578293 22.41313019 52.29578293 17.59375 57.12792969 C16.40414658 58.05278552 15.20641095 58.96729538 14 59.87011719 C12.9299535 61.05339204 11.88421173 62.25954826 10.875 63.49511719 C8.39423758 66.44682648 5.76634405 69.18061603 3 71.87011719 C2.01 72.86011719 2.01 72.86011719 1 73.87011719 C-2.25082305 73.84166359 -3.27351954 72.60434261 -5.62109375 70.32324219 C-6.5685229 69.2631816 -7.50708878 68.19514528 -8.4375 67.12011719 C-9.37257653 66.06183363 -10.30876654 65.00453282 -11.24609375 63.94824219 C-11.70226074 63.43197266 -12.15842773 62.91570312 -12.62841797 62.38378906 C-14.67090734 60.12970681 -16.82926332 57.99989657 -19 55.87011719 C-23.79995968 51.07015751 -22.31947221 39.16583342 -22.42480469 32.62890625 C-22.33718962 23.12685173 -21.07858614 16.81733041 -14.39526367 9.5690918 C-3.79312019 -0.24633056 -3.79312019 -0.24633056 0 0 Z " fill="#304486" transform="translate(346,249.1298828125)"/>
<path d="M0 0 C2.97085779 0.31830619 3.87187168 0.84536237 5.8125 3.1875 C6.534375 4.115625 7.25625 5.04375 8 6 C9.71295497 7.56132977 11.48287927 9.03789704 13.26171875 10.5234375 C22.66990151 18.51510735 22.66990151 18.51510735 23.43579102 24.28051758 C23.55704786 31.15912711 23.55704786 31.15912711 23.5559082 34.58911133 C23.56245172 36.79621637 23.61688962 38.99877266 23.67382812 41.20507812 C23.81481069 53.01121482 23.81481069 53.01121482 20.1328125 57.33984375 C19.11760224 58.25969148 18.07426336 59.14986474 17 60 C16.113125 60.9075 15.22625 61.815 14.3125 62.75 C13.549375 63.4925 12.78625 64.235 12 65 C11.443125 65.598125 10.88625 66.19625 10.3125 66.8125 C9 68 9 68 7 68 C6.773125 68.639375 6.54625 69.27875 6.3125 69.9375 C5 72 5 72 2.69140625 72.84375 C0 73 0 73 -2.2109375 71.62890625 C-3.28214844 70.60603516 -3.28214844 70.60603516 -4.375 69.5625 C-5.1484375 68.82773438 -5.921875 68.09296875 -6.71875 67.3359375 C-9.42313172 64.56672471 -12.00320687 61.72564979 -14.4921875 58.76171875 C-15.92083029 56.98981562 -15.92083029 56.98981562 -17.56005859 55.71435547 C-19.51392389 53.38813605 -19.44097162 51.82185961 -19.546875 48.80859375 C-19.58683594 47.78056641 -19.62679688 46.75253906 -19.66796875 45.69335938 C-19.69503906 44.61892578 -19.72210938 43.54449219 -19.75 42.4375 C-19.79253906 41.39013672 -19.83507812 40.34277344 -19.87890625 39.26367188 C-20.46249162 21.87498926 -20.46249162 21.87498926 -16.5625 16.875 C-14 15 -14 15 -12 15 C-11.814375 14.29875 -11.62875 13.5975 -11.4375 12.875 C-9.71813853 9.43627706 -7.63923059 7.80561404 -4.6875 5.42578125 C-2.78302348 3.81667493 -1.36301274 2.08460772 0 0 Z " fill="#2C4284" transform="translate(344,38)"/>
<path d="M0 0 C2.97085779 0.31830619 3.87187168 0.84536237 5.8125 3.1875 C6.534375 4.115625 7.25625 5.04375 8 6 C9.71295497 7.56132977 11.48287927 9.03789704 13.26171875 10.5234375 C15.65216634 12.553975 17.84372332 14.72393018 20 17 C20.53318848 17.55872803 21.06637695 18.11745605 21.61572266 18.69311523 C23.56812188 21.9467696 23.38861331 24.50915883 23.3984375 28.28515625 C23.40130768 28.98265488 23.40417786 29.6801535 23.40713501 30.39878845 C23.4091711 31.86881322 23.40367302 33.33886537 23.39111328 34.80883789 C23.37502702 37.05872033 23.39098787 39.30681322 23.41015625 41.55664062 C23.40817421 42.98698313 23.40433134 44.41732452 23.3984375 45.84765625 C23.39505371 47.14711182 23.39166992 48.44656738 23.38818359 49.78540039 C23 53 23 53 21.47509766 54.94702148 C20.98831543 55.29450439 20.5015332 55.6419873 20 56 C19.34 55.34 18.68 54.68 18 54 C18.66 53.67 19.32 53.34 20 53 C20 43.43 20 33.86 20 24 C12.4472136 28.73289481 12.4472136 28.73289481 11 32 C10.34 32 9.68 32 9 32 C8.7525 32.5775 8.505 33.155 8.25 33.75 C6.7872851 36.38288682 5.36173231 38.12450669 3 40 C-0.05731129 40.09862294 -1.10183867 38.90888119 -3.375 36.875 C-5.28718676 34.78070022 -7.1203676 32.67296772 -8.9375 30.5 C-11.6875998 27.23559582 -14.64685875 24.63461098 -18 22 C-18 24.31 -18 26.62 -18 29 C-18.33 29 -18.66 29 -19 29 C-19.7833257 21.01007787 -19.7833257 21.01007787 -16.625 16.9375 C-14 15 -14 15 -12 15 C-11.814375 14.29875 -11.62875 13.5975 -11.4375 12.875 C-9.71813853 9.43627706 -7.63923059 7.80561404 -4.6875 5.42578125 C-2.78302348 3.81667493 -1.36301274 2.08460772 0 0 Z " fill="#52B0E9" transform="translate(344,38)"/>
<path d="M0 0 C2.91663477 1.50250882 4.77214021 3.7163578 7.0625 6.0625 C8.95523859 7.98223539 10.85277189 9.89720305 12.75 11.8125 C13.23533203 12.30621094 13.72066406 12.79992187 14.22070312 13.30859375 C16.88090217 16.02865276 16.88090217 16.02865276 20.0625 18.0625 C20.0625 13.4425 20.0625 8.8225 20.0625 4.0625 C20.3925 4.0625 20.7225 4.0625 21.0625 4.0625 C22.13039104 17.23315621 22.13039104 17.23315621 19.71484375 21.37109375 C17.91683505 23.08216577 16.03547791 24.5588999 14.0625 26.0625 C12.98986549 27.24342934 11.94687628 28.45206549 10.9375 29.6875 C8.45673758 32.6392093 5.82884405 35.37299884 3.0625 38.0625 C2.4025 38.7225 1.7425 39.3825 1.0625 40.0625 C-2.18832305 40.03404641 -3.21101954 38.79672542 -5.55859375 36.515625 C-6.5060229 35.45556441 -7.44458878 34.38752809 -8.375 33.3125 C-9.31007653 32.25421644 -10.24626654 31.19691564 -11.18359375 30.140625 C-11.63976074 29.62435547 -12.09592773 29.10808594 -12.56591797 28.57617188 C-14.60840734 26.32208962 -16.76676332 24.19227938 -18.9375 22.0625 C-20.9375 20.0625 -20.9375 20.0625 -21.1328125 17.6796875 C-21.10960937 16.77476562 -21.08640625 15.86984375 -21.0625 14.9375 C-21.04445313 14.02742188 -21.02640625 13.11734375 -21.0078125 12.1796875 C-20.98460937 11.48101562 -20.96140625 10.78234375 -20.9375 10.0625 C-20.6075 10.0625 -20.2775 10.0625 -19.9375 10.0625 C-19.6075 12.3725 -19.2775 14.6825 -18.9375 17.0625 C-18.2775 16.4025 -17.6175 15.7425 -16.9375 15.0625 C-13.27083333 11.39583333 -9.60416667 7.72916667 -5.9375 4.0625 C-5.23625 3.32257813 -4.535 2.58265625 -3.8125 1.8203125 C-1.9375 0.0625 -1.9375 0.0625 0 0 Z " fill="#DDE5F1" transform="translate(345.9375,282.9375)"/>
<path d="M0 0 C0.33 0 0.66 0 1 0 C1.33 15.84 1.66 31.68 2 48 C4.475 47.505 4.475 47.505 7 47 C7 49 7 49 4.6875 51.625 C2 54 2 54 -1 54 C-1.06058594 53.03578125 -1.12117188 52.0715625 -1.18359375 51.078125 C-1.26738281 49.81484375 -1.35117187 48.5515625 -1.4375 47.25 C-1.51871094 45.99703125 -1.59992188 44.7440625 -1.68359375 43.453125 C-1.89730598 40.15168952 -1.89730598 40.15168952 -2.59765625 37.609375 C-2.73042969 37.07828125 -2.86320312 36.5471875 -3 36 C-2.505 35.505 -2.505 35.505 -2 35 C-1.85243002 32.49283162 -1.7650766 30.00960951 -1.71875 27.5 C-1.70034058 26.74912109 -1.68193115 25.99824219 -1.66296387 25.22460938 C-1.60403696 22.81648813 -1.55129132 20.40829529 -1.5 18 C-1.4325537 14.83317556 -1.3588858 11.66658916 -1.28125 8.5 C-1.26767456 7.76458984 -1.25409912 7.02917969 -1.2401123 6.27148438 C-1.11280181 1.11280181 -1.11280181 1.11280181 0 0 Z " fill="#0E1030" transform="translate(365,109)"/>
<path d="M0 0 C0.66 0.66 1.32 1.32 2 2 C1.67 3.98 1.34 5.96 1 8 C16.84 8.33 32.68 8.66 49 9 C49 8.01 49 7.02 49 6 C49.99 6.33 50.98 6.66 52 7 C51.34 7.99 50.68 8.98 50 10 C47.59555054 10.36076355 47.59555054 10.36076355 44.54052734 10.34057617 C43.39949554 10.34034958 42.25846375 10.34012299 41.08285522 10.33988953 C39.22813095 10.31666374 39.22813095 10.31666374 37.3359375 10.29296875 C36.07359283 10.28872391 34.81124817 10.28447906 33.51065063 10.28010559 C30.15338649 10.26613137 26.79673068 10.23917302 23.43963623 10.20599365 C20.01449852 10.17531352 16.58929799 10.1616047 13.1640625 10.14648438 C6.4425395 10.11334641 -0.27869511 10.06309539 -7 10 C-6.27238626 6.6547883 -5.4558202 5.10757635 -2.9375 2.75 C-2.38964844 2.22921875 -1.84179688 1.7084375 -1.27734375 1.171875 C-0.64505859 0.59179688 -0.64505859 0.59179688 0 0 Z " fill="#67B5E3" transform="translate(384,162)"/>
<path d="M0 0 C1.32 0.33 2.64 0.66 4 1 C3.67 1.66 3.34 2.32 3 3 C2.34 2.67 1.68 2.34 1 2 C1 18.83 1 35.66 1 53 C3.64430277 54.05772111 6.29814878 55.09938293 9 56 C10.99396257 58.66083969 13 61.61242325 13 65 C12.34 65 11.68 65 11 65 C11 64.34 11 63.68 11 63 C10.4225 62.773125 9.845 62.54625 9.25 62.3125 C6.43086319 60.66800353 4.98745131 58.5644533 3 56 C2.01 55.34 1.02 54.68 0 54 C-0.36076355 51.70944214 -0.36076355 51.70944214 -0.34057617 48.81591797 C-0.34034958 47.73494843 -0.34012299 46.65397888 -0.33988953 45.54025269 C-0.32440567 44.36939117 -0.30892181 43.19852966 -0.29296875 41.9921875 C-0.28872391 40.79643097 -0.28447906 39.60067444 -0.28010559 38.36868286 C-0.26326902 34.53722929 -0.22560684 30.70629547 -0.1875 26.875 C-0.17245964 24.28255966 -0.15877011 21.69011111 -0.14648438 19.09765625 C-0.11334918 12.73159252 -0.0631003 6.36583338 0 0 Z " fill="#96CDEE" transform="translate(364,197)"/>
<path d="M0 0 C3.63 0 7.26 0 11 0 C12 4 12 4 11 6 C11.99 6.33 12.98 6.66 14 7 C13.01 7.66 12.02 8.32 11 9 C10.27617533 11.05925139 10.27617533 11.05925139 10 13 C6.19364503 9.79239749 2.45436433 6.59253891 -1 3 C-0.67 2.01 -0.34 1.02 0 0 Z " fill="#3A63A7" transform="translate(378,188)"/>
<path d="M0 0 C0.33 0 0.66 0 1 0 C2.13009697 11.11368197 2.11658919 22.15481772 2.0625 33.3125 C2.05747197 35.13216022 2.05291138 36.95182179 2.04882812 38.77148438 C2.03793265 43.1810237 2.02074084 47.59049645 2 52 C1.01 52 0.02 52 -1 52 C-1.33 50.68 -1.66 49.36 -2 48 C-1.34 48 -0.68 48 0 48 C0 32.16 0 16.32 0 0 Z " fill="#68B0DB" transform="translate(405,239)"/>
<path d="M0 0 C4.37826761 1.75130704 5.80161403 2.4370031 8.8125 5.625 C9.71935547 6.57246094 9.71935547 6.57246094 10.64453125 7.5390625 C11.09183594 8.02117187 11.53914063 8.50328125 12 9 C11.34 9.66 10.68 10.32 10 11 C9.67 10.01 9.34 9.02 9 8 C6.69 7.67 4.38 7.34 2 7 C1.67 21.52 1.34 36.04 1 51 C0.67 51 0.34 51 0 51 C0 34.17 0 17.34 0 0 Z " fill="#51A7DC" transform="translate(365,199)"/>
<path d="M0 0 C9.24 0 18.48 0 28 0 C28 0.66 28 1.32 28 2 C29.65 2 31.3 2 33 2 C33 2.33 33 2.66 33 3 C22.77 3 12.54 3 2 3 C2 2.34 2 1.68 2 1 C1.34 0.67 0.68 0.34 0 0 Z " fill="#0C1141" transform="translate(270,188)"/>
<path d="M0 0 C0.99 0.33 1.98 0.66 3 1 C3.07417023 5.50232334 3.1286105 10.00429091 3.16479492 14.50708008 C3.17987936 16.03871861 3.20034978 17.57031398 3.22631836 19.10180664 C3.26271847 21.30365654 3.27972913 23.50493533 3.29296875 25.70703125 C3.30845261 26.39150833 3.32393646 27.07598541 3.33988953 27.78120422 C3.34158031 32.55999359 3.34158031 32.55999359 1.48168945 34.95581055 C0.99273193 35.30039307 0.50377441 35.64497559 0 36 C-0.66 35.34 -1.32 34.68 -2 34 C-1.01 33.505 -1.01 33.505 0 33 C0 23.43 0 13.86 0 4 C-0.66 3.67 -1.32 3.34 -2 3 C-1.34 2.01 -0.68 1.02 0 0 Z " fill="#6D82A9" transform="translate(364,58)"/>
<path d="M0 0 C0 17.49 0 34.98 0 53 C-0.33 53 -0.66 53 -1 53 C-1.33 36.83 -1.66 20.66 -2 4 C-3.65 4.33 -5.3 4.66 -7 5 C-7 5.99 -7 6.98 -7 8 C-7.66 7.67 -8.32 7.34 -9 7 C-7.68534669 3.05604006 -4.38536841 0 0 0 Z " fill="#515166" transform="translate(407,69)"/>
<path d="M0 0 C0.99 0 1.98 0 3 0 C3.33 1.98 3.66 3.96 4 6 C5.32 5.67 6.64 5.34 8 5 C8.6875 6.8125 8.6875 6.8125 9 9 C7.6875 10.75 7.6875 10.75 6 12 C5.34 12 4.68 12 4 12 C3.34 13.32 2.68 14.64 2 16 C1.67 16 1.34 16 1 16 C0.67 10.72 0.34 5.44 0 0 Z " fill="#334581" transform="translate(325,285)"/>
<path d="M0 0 C0.99 0 1.98 0 3 0 C4.19791173 2.39582346 4.1206744 3.86777538 4.11352539 6.54150391 C4.11344986 7.48232819 4.11337433 8.42315247 4.11329651 9.39248657 C4.10813522 10.41023163 4.10297394 11.42797668 4.09765625 12.4765625 C4.0962413 13.51694672 4.09482635 14.55733093 4.09336853 15.62924194 C4.08775866 18.96119021 4.07520447 22.29307195 4.0625 25.625 C4.05748627 27.88020736 4.05292314 30.13541578 4.04882812 32.390625 C4.03778603 37.92710614 4.02103827 43.46354832 4 49 C3.34 48.67 2.68 48.34 2 48 C2 33.15 2 18.3 2 3 C1.34 3 0.68 3 0 3 C0 2.01 0 1.02 0 0 Z " fill="#010123" transform="translate(402,73)"/>
<path d="M0 0 C17.82 0 35.64 0 54 0 C52 5 52 5 50 6 C49.505 4.02 49.505 4.02 49 2 C24.745 1.505 24.745 1.505 0 1 C0 0.67 0 0.34 0 0 Z " fill="#55A4D5" transform="translate(417,131)"/>
<path d="M0 0 C18.36847838 -0.12958011 36.64856125 0.12556825 55 1 C55 1.99 55 2.98 55 4 C54.01 4 53.02 4 52 4 C52 3.34 52 2.68 52 2 C34.51 2 17.02 2 -1 2 C-0.67 1.34 -0.34 0.68 0 0 Z " fill="#131743" transform="translate(221,227)"/>
<path d="M0 0 C3.07251127 0.32919764 3.9335481 0.92316499 6 3.3125 C6.66 4.199375 7.32 5.08625 8 6 C9.31494512 7.35147138 10.64264858 8.69112542 12 10 C8.53058454 9.54177532 5.32604951 9.10868317 2 8 C2 7.34 2 6.68 2 6 C0.35 5.67 -1.3 5.34 -3 5 C-2.01 3.35 -1.02 1.7 0 0 Z " fill="#75C0E7" transform="translate(344,38)"/>
<path d="M0 0 C0.33 0 0.66 0 1 0 C1 15.84 1 31.68 1 48 C2.32 48 3.64 48 5 48 C5 48.66 5 49.32 5 50 C2.525 50.495 2.525 50.495 0 51 C0 34.17 0 17.34 0 0 Z " fill="#525468" transform="translate(284,240)"/>
<path d="M0 0 C0.33 0 0.66 0 1 0 C1 17.49 1 34.98 1 53 C0.67 53 0.34 53 0 53 C-0.06058594 52.03578125 -0.12117188 51.0715625 -0.18359375 50.078125 C-0.26738281 48.81484375 -0.35117187 47.5515625 -0.4375 46.25 C-0.51871094 44.99703125 -0.59992188 43.7440625 -0.68359375 42.453125 C-0.89730598 39.15168952 -0.89730598 39.15168952 -1.59765625 36.609375 C-1.73042969 36.07828125 -1.86320312 35.5471875 -2 35 C-1.505 34.505 -1.505 34.505 -1 34 C-0.84011509 31.48119483 -0.74065775 28.98657734 -0.68359375 26.46484375 C-0.66281265 25.71159317 -0.64203156 24.95834259 -0.62062073 24.18226624 C-0.55504575 21.7674401 -0.49620379 19.35250202 -0.4375 16.9375 C-0.3943223 15.30402471 -0.35070827 13.6705609 -0.30664062 12.03710938 C-0.19935638 8.02485536 -0.09811179 4.01248836 0 0 Z " fill="#6B6C83" transform="translate(364,110)"/>
<path d="M0 0 C1.98 1.65 3.96 3.3 6 5 C4 7 4 7 2.05111694 7.24050903 C1.256138 7.23606781 0.46115906 7.23162659 -0.35791016 7.22705078 C-1.25869293 7.22689972 -2.15947571 7.22674866 -3.08755493 7.22659302 C-4.06155243 7.21627045 -5.03554993 7.20594788 -6.0390625 7.1953125 C-7.03505463 7.1924826 -8.03104675 7.18965271 -9.05722046 7.18673706 C-12.24660118 7.1755184 -15.43570378 7.15041081 -18.625 7.125 C-20.78385012 7.11497238 -22.94270463 7.10584615 -25.1015625 7.09765625 C-30.40113699 7.07557361 -35.70054863 7.04207958 -41 7 C-41 6.67 -41 6.34 -41 6 C-26.81 6 -12.62 6 2 6 C1.34 4.02 0.68 2.04 0 0 Z " fill="#345A9F" transform="translate(466,222)"/>
<path d="M0 0 C-0.25 1.875 -0.25 1.875 -1 4 C-1.639375 4.309375 -2.27875 4.61875 -2.9375 4.9375 C-5.2646978 5.83719258 -5.2646978 5.83719258 -5.875 8.5 C-7 11 -7 11 -10.125 12.3125 C-11.548125 12.6528125 -11.548125 12.6528125 -13 13 C-12.67 13.99 -12.34 14.98 -12 16 C-14.31 16.66 -16.62 17.32 -19 18 C-15.49117954 13.81594262 -11.91362356 9.81578297 -8 6 C-7.48050781 5.45859375 -6.96101563 4.9171875 -6.42578125 4.359375 C-2.21918808 0 -2.21918808 0 0 0 Z " fill="#20203F" transform="translate(399,77)"/>
<path d="M0 0 C0 4.40739541 -1.96981861 6.9033553 -4.9375 10.0625 C-5.618125 10.701875 -6.29875 11.34125 -7 12 C-7.639375 12.721875 -8.27875 13.44375 -8.9375 14.1875 C-11.30762179 16.2703343 -12.90423916 16.65602657 -16 17 C-12.4914429 12.81625666 -8.91473058 8.81435287 -5 5 C-3.6078125 3.6078125 -3.6078125 3.6078125 -2.1875 2.1875 C-1.1046875 1.1046875 -1.1046875 1.1046875 0 0 Z " fill="#78B9DF" transform="translate(411,135)"/>
<path d="M0 0 C2 2 2 2 2.1953125 4.6015625 C2.17210937 5.59929687 2.14890625 6.59703125 2.125 7.625 C2.10695313 8.62789062 2.08890625 9.63078125 2.0703125 10.6640625 C2.03550781 11.82035156 2.03550781 11.82035156 2 13 C2.99 13 3.98 13 5 13 C5.33 13.66 5.66 14.32 6 15 C6.33 15 6.66 15 7 15 C7 16.65 7 18.3 7 20 C5 20 5 20 2.375 17.875 C-1.71635067 12.93178453 -0.37085784 6.01613823 0 0 Z M6 12 C6.99 12.495 6.99 12.495 8 13 C7.67 13.66 7.34 14.32 7 15 C6.67 14.01 6.34 13.02 6 12 Z " fill="#65739E" transform="translate(325,78)"/>
<path d="M0 0 C0.99 1.32 1.98 2.64 3 4 C-1.75 7 -1.75 7 -4 7 C-4.33 8.32 -4.66 9.64 -5 11 C-5.66 11 -6.32 11 -7 11 C-7 11.66 -7 12.32 -7 13 C-8.98 13.99 -8.98 13.99 -11 15 C-11.33 14.01 -11.66 13.02 -12 12 C-8.04 8.04 -4.08 4.08 0 0 Z " fill="#404161" transform="translate(304,218)"/>
<path d="M0 0 C3.82352106 1.5577308 6.29205593 3.91595258 9 7 C9 7.99 9 8.98 9 10 C5.04 10 1.08 10 -3 10 C-2.67 9.34 -2.34 8.68 -2 8 C0.5625 7.375 0.5625 7.375 3 7 C3.33 6.01 3.66 5.02 4 4 C2.68 3.67 1.36 3.34 0 3 C0 2.01 0 1.02 0 0 Z " fill="#363752" transform="translate(305,162)"/>
<path d="M0 0 C0.99 0 1.98 0 3 0 C3 0.99 3 1.98 3 3 C4.32 2.67 5.64 2.34 7 2 C7.37125 3.175625 7.37125 3.175625 7.75 4.375 C8.72120368 7.14039889 8.72120368 7.14039889 11.0625 7.9375 C11.701875 8.288125 12.34125 8.63875 13 9 C13.75 12.125 13.75 12.125 14 15 C8.79814679 10.75358921 4.15632577 6.29331458 0 1 C0 0.67 0 0.34 0 0 Z " fill="#6875A7" transform="translate(289,126)"/>
<path d="M0 0 C1.27536756 0.61569468 2.54580592 1.24165296 3.8125 1.875 C3.4825 2.535 3.1525 3.195 2.8125 3.875 C0.25 4.5 0.25 4.5 -2.1875 4.875 C-2.1875 5.535 -2.1875 6.195 -2.1875 6.875 C-4.1675 7.535 -6.1475 8.195 -8.1875 8.875 C-7.70660864 4.54697777 -4.72053054 -0.2697446 0 0 Z " fill="#CDDAF1" transform="translate(346.1875,283.125)"/>
<path d="M0 0 C0.33 1.32 0.66 2.64 1 4 C0.34 4 -0.32 4 -1 4 C-0.67 4.99 -0.34 5.98 0 7 C-0.99 7.33 -1.98 7.66 -3 8 C-3 8.99 -3 9.98 -3 11 C-3.66 11 -4.32 11 -5 11 C-5.33 12.32 -5.66 13.64 -6 15 C-6.92017937 7.33183857 -6.92017937 7.33183857 -4.6640625 4.06640625 C-3 2.4375 -3 2.4375 0 0 Z " fill="#60719F" transform="translate(331,262)"/>
<path d="M0 0 C1.12894876 0.93274109 2.25300876 1.87140122 3.375 2.8125 C4.00148438 3.33457031 4.62796875 3.85664063 5.2734375 4.39453125 C7 6 7 6 9 9 C8.01 9 7.02 9 6 9 C6 8.34 6 7.68 6 7 C3.69 6.67 1.38 6.34 -1 6 C-1.33 4.35 -1.66 2.7 -2 1 C-1.34 0.67 -0.68 0.34 0 0 Z " fill="#63B5E4" transform="translate(368,200)"/>
<path d="M0 0 C6.22918134 1.07812754 6.22918134 1.07812754 8.35546875 3.62109375 C11 8.21322202 11 8.21322202 11 11 C10.34 11 9.68 11 9 11 C9 10.34 9 9.68 9 9 C8.443125 8.814375 7.88625 8.62875 7.3125 8.4375 C3.93245808 6.33639286 2.14859619 3.29334006 0 0 Z " fill="#7AB8DE" transform="translate(366,251)"/>
<path d="M0 0 C3.91641711 -0.11618764 7.83239101 -0.18724654 11.75 -0.25 C13.41675781 -0.30027344 13.41675781 -0.30027344 15.1171875 -0.3515625 C16.18710937 -0.36445313 17.25703125 -0.37734375 18.359375 -0.390625 C19.34389648 -0.41157227 20.32841797 -0.43251953 21.34277344 -0.45410156 C24.69640696 0.11901111 25.85922021 1.43284083 28 4 C26.34484375 3.50886719 26.34484375 3.50886719 24.65625 3.0078125 C19.58451908 1.73987977 14.69985606 1.77674691 9.5 1.875 C8.5821875 1.88402344 7.664375 1.89304688 6.71875 1.90234375 C4.47888444 1.92567568 2.23958817 1.95840765 0 2 C0 1.34 0 0.68 0 0 Z " fill="#37609F" transform="translate(410,189)"/>
<path d="M0 0 C1.984375 0.95703125 1.984375 0.95703125 4 3 C4.52039056 5.90294794 4.37530743 8.75000457 4.25 11.6875 C4.23195313 12.48478516 4.21390625 13.28207031 4.1953125 14.10351562 C4.14822247 16.06952449 4.07647899 18.03491494 4 20 C2.01184529 16.6515289 1.66434965 13.86127071 1.4375 10 C1.22542788 6.53759804 0.97059283 3.33691419 0 0 Z " fill="#84A1C1" transform="translate(363,266)"/>
<path d="M0 0 C3.3 0.99 6.6 1.98 10 3 C10 3.99 10 4.98 10 6 C10.31088368 7.67099977 10.64080332 9.33871537 11 11 C9.84775972 10.07038578 8.70340824 9.1309875 7.5625 8.1875 C6.92441406 7.66542969 6.28632813 7.14335937 5.62890625 6.60546875 C4 5 4 5 3 2 C2.01 1.67 1.02 1.34 0 1 C0 0.67 0 0.34 0 0 Z " fill="#7EBFE5" transform="translate(377,263)"/>
<path d="M0 0 C-2.97088618 3.99926986 -6.12948725 6.92118304 -10 10 C-9.3001048 6.85047161 -8.34839851 3.9347497 -7 1 C-4.53721199 -0.231394 -2.7204945 -0.07159196 0 0 Z " fill="#78BCE2" transform="translate(466,139)"/>
<path d="M0 0 C1 4 1 4 0 7 C-0.78375 7.103125 -1.5675 7.20625 -2.375 7.3125 C-5.33045181 7.77595022 -5.33045181 7.77595022 -7 11 C-7.99 10.67 -8.98 10.34 -10 10 C-6.7 6.7 -3.4 3.4 0 0 Z " fill="#36394F" transform="translate(325,197)"/>
<path d="M0 0 C0.99 0.33 1.98 0.66 3 1 C2.01 2.485 2.01 2.485 1 4 C-1.70556641 4.34057617 -1.70556641 4.34057617 -5.1015625 4.29296875 C-6.91914063 4.2784668 -6.91914063 4.2784668 -8.7734375 4.26367188 C-10.04445313 4.23853516 -11.31546875 4.21339844 -12.625 4.1875 C-13.90375 4.17396484 -15.1825 4.16042969 -16.5 4.14648438 C-19.66708282 4.11103196 -22.83333541 4.06161441 -26 4 C-26 3.67 -26 3.34 -26 3 C-17.42 3 -8.84 3 0 3 C0 2.01 0 1.02 0 0 Z " fill="#74B8E0" transform="translate(433,168)"/>
<path d="M0 0 C0.33 0 0.66 0 1 0 C1.02696365 1.79158489 1.04637917 3.58328473 1.0625 5.375 C1.07410156 6.37273437 1.08570313 7.37046875 1.09765625 8.3984375 C1 11 1 11 0 13 C-0.66 13 -1.32 13 -2 13 C-2 9.37 -2 5.74 -2 2 C-1.34 2 -0.68 2 0 2 C0 1.34 0 0.68 0 0 Z " fill="#274184" transform="translate(364,285)"/>
<path d="M0 0 C5.28 0 10.56 0 16 0 C15 4 15 4 12 6 C12.33 4.68 12.66 3.36 13 2 C8.71 1.67 4.42 1.34 0 1 C0 0.67 0 0.34 0 0 Z " fill="#373A5B" transform="translate(298,188)"/>
<path d="M0 0 C0.99 0 1.98 0 3 0 C3.28571429 8.57142857 3.28571429 8.57142857 1 12 C-0.3271261 8.0186217 -0.06915913 4.14954773 0 0 Z " fill="#2A3A76" transform="translate(325,285)"/>
<path d="M0 0 C0.66 0.66 1.32 1.32 2 2 C-1.28804981 4.91227269 -3.59885603 6.49701212 -8 7 C-8 6.34 -8 5.68 -8 5 C-5.35153397 2.63785462 -3.38483604 1.12827868 0 0 Z " fill="#2A3C78" transform="translate(340,257)"/>
<path d="M0 0 C0.66 0.33 1.32 0.66 2 1 C0.046875 3.19726562 0.046875 3.19726562 -1.90625 5.39453125 C-3.28151241 7.089448 -3.28151241 7.089448 -3 10 C-4.65 9.67 -6.3 9.34 -8 9 C-6.90101298 5.70303895 -6.05402613 4.95329411 -3.4375 2.8125 C-2.79683594 2.28269531 -2.15617187 1.75289062 -1.49609375 1.20703125 C-0.75552734 0.60955078 -0.75552734 0.60955078 0 0 Z " fill="#020225" transform="translate(312,212)"/>
<path d="M0 0 C0 2.31 0 4.62 0 7 C-0.66 6.67 -1.32 6.34 -2 6 C-2 5.34 -2 4.68 -2 4 C-3.65 4.33 -5.3 4.66 -7 5 C-7 5.99 -7 6.98 -7 8 C-7.66 7.67 -8.32 7.34 -9 7 C-7.68534669 3.05604006 -4.38536841 0 0 0 Z " fill="#424353" transform="translate(407,69)"/>
<path d="M0 0 C-0.97566112 1.16959987 -1.955625 2.33561177 -2.9375 3.5 C-3.48277344 4.1496875 -4.02804687 4.799375 -4.58984375 5.46875 C-5.05519531 5.9740625 -5.52054687 6.479375 -6 7 C-6.33 7 -6.66 7 -7 7 C-7 4.69 -7 2.38 -7 0 C-2.25 -1.125 -2.25 -1.125 0 0 Z " fill="#565F91" transform="translate(359,99)"/>
<path d="M0 0 C1.98 0.495 1.98 0.495 4 1 C4.33 3.31 4.66 5.62 5 8 C3.02 6.35 1.04 4.7 -1 3 C-0.67 2.01 -0.34 1.02 0 0 Z " fill="#5E77B6" transform="translate(378,188)"/>
<path d="M0 0 C0 2 0 2 -2.375 4.625 C-5 7 -5 7 -7 7 C-7 5.02 -7 3.04 -7 1 C-4 0 -4 0 0 0 Z " fill="#34364C" transform="translate(372,156)"/>
<path d="M0 0 C1.32 0 2.64 0 4 0 C4 2.31 4 4.62 4 7 C3.01 7 2.02 7 1 7 C0.34 5.02 -0.32 3.04 -1 1 C-0.67 0.67 -0.34 0.34 0 0 Z " fill="#465283" transform="translate(323,156)"/>
<path d="M0 0 C2 2 2 2 2.1953125 5.9140625 C2.18200376 7.48449351 2.15813602 9.05486221 2.125 10.625 C2.11597656 11.42679688 2.10695313 12.22859375 2.09765625 13.0546875 C2.07406223 15.03658523 2.03819065 17.01832981 2 19 C1.67 19 1.34 19 1 19 C0.93941406 18.03578125 0.87882812 17.0715625 0.81640625 16.078125 C0.73261719 14.81484375 0.64882813 13.5515625 0.5625 12.25 C0.48128906 10.99703125 0.40007812 9.7440625 0.31640625 8.453125 C0.10269402 5.15168952 0.10269402 5.15168952 -0.59765625 2.609375 C-0.73042969 2.07828125 -0.86320312 1.5471875 -1 1 C-0.67 0.67 -0.34 0.34 0 0 Z " fill="#9B9DAD" transform="translate(363,144)"/>
<path d="M0 0 C2.97 0 5.94 0 9 0 C8.34 0.474375 7.68 0.94875 7 1.4375 C6.01 2.2109375 6.01 2.2109375 5 3 C5 3.33 5 3.66 5 4 C4.34 4.66 3.68 5.32 3 6 C1.5 4.6875 1.5 4.6875 0 3 C0 2.01 0 1.02 0 0 Z " fill="#54546C" transform="translate(219,130)"/>
<path d="M0 0 C0.99 0.33 1.98 0.66 3 1 C3 3.97 3 6.94 3 10 C2.34 10 1.68 10 1 10 C0.87625 9.030625 0.7525 8.06125 0.625 7.0625 C0.41875 6.051875 0.2125 5.04125 0 4 C-0.66 3.67 -1.32 3.34 -2 3 C-1.34 2.01 -0.68 1.02 0 0 Z " fill="#7B99C0" transform="translate(364,58)"/>
<path d="M0 0 C4.875 4.625 4.875 4.625 6 8 C6.66 8.33 7.32 8.66 8 9 C5.03 8.505 5.03 8.505 2 8 C2 6.68 2 5.36 2 4 C1.34 4 0.68 4 0 4 C0 2.68 0 1.36 0 0 Z " fill="#6480B8" transform="translate(453,208)"/>
<path d="M0 0 C0.33 0.99 0.66 1.98 1 3 C-1.5162178 5.60608273 -4.05134359 7.89381685 -7 10 C-7.66 9.67 -8.32 9.34 -9 9 C-6.03 6.03 -3.06 3.06 0 0 Z " fill="#31314C" transform="translate(379,95)"/>
<path d="M0 0 C0.99 0.33 1.98 0.66 3 1 C3 1.66 3 2.32 3 3 C2.34 3 1.68 3 1 3 C1 3.66 1 4.32 1 5 C-0.98 5.99 -0.98 5.99 -3 7 C-3.33 6.01 -3.66 5.02 -4 4 C-2.68 2.68 -1.36 1.36 0 0 Z " fill="#2D2E4C" transform="translate(296,226)"/>
<path d="M0 0 C0.33 0.66 0.66 1.32 1 2 C1.99 2.33 2.98 2.66 4 3 C2.71034824 4.37562854 1.37310707 5.70766393 0 7 C-0.66 7 -1.32 7 -2 7 C-2.125 4.625 -2.125 4.625 -2 2 C-1.34 1.34 -0.68 0.68 0 0 Z " fill="#6FBEE8" transform="translate(452,147)"/>
<path d="M0 0 C0.763125 0.20625 1.52625 0.4125 2.3125 0.625 C1.6525 2.605 0.9925 4.585 0.3125 6.625 C-1.6675 4.975 -3.6475 3.325 -5.6875 1.625 C-2.6875 -0.375 -2.6875 -0.375 0 0 Z " fill="#5A689D" transform="translate(308.6875,140.375)"/>
<path d="M0 0 C0.33 1.32 0.66 2.64 1 4 C-4.625 8 -4.625 8 -8 8 C-5.36 5.36 -2.72 2.72 0 0 Z " fill="#7A86AD" transform="translate(340,253)"/>
<path d="M0 0 C2.31 1.98 4.62 3.96 7 6 C6.34 6.66 5.68 7.32 5 8 C3.0625 7.375 3.0625 7.375 1 6 C0.25 2.875 0.25 2.875 0 0 Z " fill="#74BFE5" transform="translate(397,229)"/>
<path d="M0 0 C1.98 1.65 3.96 3.3 6 5 C4 7 4 7 0.875 7.125 C-0.548125 7.063125 -0.548125 7.063125 -2 7 C-0.68 6.67 0.64 6.34 2 6 C1.34 4.02 0.68 2.04 0 0 Z " fill="#4C6BA4" transform="translate(466,222)"/>
<path d="M0 0 C-1.65 1.98 -3.3 3.96 -5 6 C-5.33 5.01 -5.66 4.02 -6 3 C-6.66 2.67 -7.32 2.34 -8 2 C-4.77208445 -0.1519437 -3.71599191 -0.20086443 0 0 Z " fill="#6FBAE5" transform="translate(444,161)"/>
<path d="M0 0 C1.65 0 3.3 0 5 0 C3.19587357 3.26460973 2.16605307 4.88929795 -1 7 C-0.67 4.69 -0.34 2.38 0 0 Z " fill="#7FC0E1" transform="translate(445,154)"/>
<path d="M0 0 C0.33 0.99 0.66 1.98 1 3 C-1.40436026 6.60654039 -2.94679607 6.85452932 -7 8 C-6.02133662 6.85373678 -5.04205413 5.70800212 -4.0625 4.5625 C-3.51722656 3.92441406 -2.97195313 3.28632813 -2.41015625 2.62890625 C-1.63204305 1.73008851 -0.84063472 0.84063472 0 0 Z " fill="#90C7E6" transform="translate(393,153)"/>
<path d="M0 0 C0 3.57575896 -1.08840607 5.05295935 -3 8 C-4.32 7.67 -5.64 7.34 -7 7 C-4.69 4.69 -2.38 2.38 0 0 Z " fill="#86CBE9" transform="translate(411,135)"/>
<path d="M0 0 C1.9375 0.625 1.9375 0.625 4 2 C4.75 5.125 4.75 5.125 5 8 C3.02 6.35 1.04 4.7 -1 3 C-0.67 2.01 -0.34 1.02 0 0 Z " fill="#586697" transform="translate(298,133)"/>
<path d="M0 0 C0.33 0.99 0.66 1.98 1 3 C-3.01804691 3.84098656 -6.01803543 4.05404945 -10 3 C-6.55549263 0.70366176 -4.06187717 0.45983515 0 0 Z " fill="#16163B" transform="translate(235,129)"/>
<path d="M0 0 C0.66 0.99 1.32 1.98 2 3 C1.34 3.66 0.68 4.32 0 5 C-2 4.8125 -2 4.8125 -4 4 C-4.66 3.01 -5.32 2.02 -6 1 C-4.02 0.67 -2.04 0.34 0 0 Z " fill="#479AD5" transform="translate(347,73)"/>
<path d="M0 0 C0 3.3 0 6.6 0 10 C-2 7 -2 7 -3 4 C-3.99 4 -4.98 4 -6 4 C-1.125 0 -1.125 0 0 0 Z " fill="#2C498F" transform="translate(365,61)"/>
<path d="M0 0 C4.62 0 9.24 0 14 0 C14 0.99 14 1.98 14 3 C13.01 3 12.02 3 11 3 C11 2.34 11 1.68 11 1 C7.37 1 3.74 1 0 1 C0 0.67 0 0.34 0 0 Z " fill="#0D1236" transform="translate(262,228)"/>
<path d="M0 0 C2.31 1.98 4.62 3.96 7 6 C5.68 6.33 4.36 6.66 3 7 C1.25 5.8125 1.25 5.8125 0 4 C0 2.68 0 1.36 0 0 Z " fill="#8EC8EA" transform="translate(349,41)"/>
<path d="M0 0 C0.99 0.33 1.98 0.66 3 1 C3 2.65 3 4.3 3 6 C1.35 4.35 -0.3 2.7 -2 1 C-1.34 0.67 -0.68 0.34 0 0 Z " fill="#5075AE" transform="translate(403,213)"/>
<path d="M0 0 C2.75 -0.25 2.75 -0.25 6 0 C8.375 2 8.375 2 10 4 C6.7 3.01 3.4 2.02 0 1 C0 0.67 0 0.34 0 0 Z " fill="#5E7CAC" transform="translate(428,189)"/>
<path d="M0 0 C2.04119788 1.61594832 4.04072937 3.2856382 6 5 C6 5.66 6 6.32 6 7 C3.5625 6.3125 3.5625 6.3125 1 5 C0.1875 2.375 0.1875 2.375 0 0 Z " fill="#5A5B76" transform="translate(289,145)"/>
</svg>
